<svg width="291" height="208" viewBox="0 0 291 208" fill="none" xmlns="http://www.w3.org/2000/svg">
<path d="M283.363 207.441H287.115L279.121 138.174H275.369L283.363 207.441Z" fill="#E2E8F4"/>
<path d="M241.022 207.441H237.27L245.267 138.174H249.016L241.022 207.441Z" fill="#E2E8F4"/>
<path d="M55.7351 207.441H59.4868L51.4924 138.174H47.7407L55.7351 207.441Z" fill="#E2E8F4"/>
<path d="M13.3936 207.441H9.6438L17.6382 138.174H21.3879L13.3936 207.441Z" fill="#E2E8F4"/>
<path d="M259.56 152.253H17.0854C10.127 152.253 4.15448 146.631 3.74665 139.692L0.022007 76.4794C-0.385828 69.5428 4.92376 63.9185 11.8821 63.9185H254.357C261.315 63.9185 267.288 69.5409 267.695 76.4794L271.42 139.694C271.828 146.631 266.518 152.253 259.56 152.253Z" fill="#E2E8F4"/>
<path d="M269.201 152.253H26.7265C19.7682 152.253 13.7956 146.631 13.3878 139.692L9.66507 76.4794C9.25724 69.5428 14.5668 63.9185 21.5252 63.9185H264C270.958 63.9185 276.931 69.5409 277.338 76.4794L281.061 139.694C281.471 146.631 276.161 152.253 269.201 152.253Z" fill="#F1F4FF"/>
<path d="M281.494 152.829H13.5327C8.55361 152.829 4.28003 148.793 3.98817 143.812C3.6963 138.831 7.49439 134.794 12.4735 134.794H280.435C285.414 134.794 289.688 138.831 289.979 143.812C290.271 148.793 286.473 152.829 281.494 152.829Z" fill="#E2E8F4"/>
<path d="M281.471 152.829H24.4768C19.4803 152.829 15.1932 148.793 14.8994 143.812C14.6056 138.831 18.4192 134.794 23.4137 134.794H280.408C285.404 134.794 289.692 138.831 289.985 143.812C290.279 148.793 286.466 152.829 281.471 152.829Z" fill="#F1F4FF"/>
<path d="M249.849 50.9529L234.274 70.7028C233.124 71.3598 211.418 82.7723 211.418 82.7723C211.418 82.7723 207.523 84.9554 205.127 86.1135C205.127 86.1135 206.17 88.7513 207.205 91.4276C216.163 88.0634 242.033 78.3118 243.177 77.4717C244.354 76.6085 262.011 55.6832 262.011 55.6832L249.849 50.9529Z" fill="#F8A492"/>
<path d="M250.006 41.7542C250.006 41.7542 247.008 42.3091 241.923 50.9547C237.178 59.0242 232.968 68.0745 232.968 68.0745L241.486 76.934C241.486 76.934 247.748 57.9394 248.282 57.3286C248.815 56.7159 250.006 41.7542 250.006 41.7542Z" fill="url(#paint0_linear_181_4417)"/>
<path d="M221.39 193.553C221.39 193.553 221.848 201.11 221.85 201.125C222.018 202.085 222.681 204.455 222.681 205.327C222.681 208.605 207.071 202.545 210.57 201.094C210.887 200.963 212.545 199.969 212.649 198.853C212.81 197.135 213.218 193.659 213.218 193.659L221.39 193.553Z" fill="#F7A491"/>
<path d="M210.608 201.064C210.608 201.064 214.273 202.066 216.15 202.316C218.027 202.566 220.501 200.457 221.829 201.027C223.29 201.655 223.232 207.301 223.232 207.301C223.232 207.301 203.578 208.908 198.052 207.245C195.866 206.588 203.116 203.399 210.608 201.064Z" fill="#B75742"/>
<path d="M194.89 193.553C194.89 193.553 195.348 201.11 195.35 201.125C195.518 202.085 196.181 204.455 196.181 205.328C196.181 208.605 180.571 202.545 184.07 201.094C184.387 200.963 186.751 200.545 186.853 199.432C187.014 197.713 187.313 192.399 187.313 192.399L194.89 193.553Z" fill="#F7A491"/>
<path d="M184.111 201.064C184.111 201.064 187.775 202.066 189.652 202.316C191.529 202.566 194.003 200.457 195.331 201.027C196.792 201.655 196.734 207.301 196.734 207.301C196.734 207.301 177.081 208.908 171.555 207.245C169.367 206.588 176.619 203.399 184.111 201.064Z" fill="#B75742"/>
<path d="M245.589 114.283L208.277 114.443C208.277 114.443 191.423 114.002 188.759 119.813C186.094 125.623 185.916 194.508 185.916 194.508C185.916 194.508 194.735 195.002 195.195 194.508L206.315 156.078C207.4 152.334 207.767 148.419 207.402 144.54L206.433 134.265L221.828 135.049C221.828 135.049 239.282 134.771 245.038 129C250.791 123.228 245.589 114.283 245.589 114.283Z" fill="#2F3342"/>
<path d="M270.881 110.181L230.762 112.634C230.762 112.634 213.496 114.033 210.832 119.842C208.167 125.654 211.723 194.507 211.723 194.507C211.723 194.507 221.871 194.944 221.852 194.507C221.827 193.986 226.637 166.163 228.932 155.533C229.66 152.159 229.914 148.702 229.689 145.257L229.102 136.253C229.102 136.253 270.297 135.438 272.147 133.583C277.899 127.814 270.881 110.181 270.881 110.181Z" fill="#2F3342"/>
<path d="M250.006 41.7542C255.82 41.2571 266.238 42.5558 266.238 42.5558C266.238 42.5558 272.876 42.8718 274.865 43.762C277.793 45.0722 283.489 46.5925 281.203 59.9819C279.567 69.564 275.099 101.318 272.812 117.422L232.968 112.644C241.389 80.7993 244.501 42.2244 250.006 41.7542Z" fill="url(#paint1_linear_181_4417)"/>
<path d="M263.31 30.0795L267.056 42.6231C267.056 42.6231 260.689 49.8583 256.27 49.155C252.563 48.5635 254.289 43.2802 254.289 43.2802C254.289 43.2802 255.197 36.1683 254.102 32.6653C253.004 29.1624 263.31 30.0795 263.31 30.0795Z" fill="#F7A491"/>
<path d="M261.793 34.467C260.105 35.6405 257.393 37.0837 254.639 37.785C254.649 35.9526 254.529 34.0354 254.102 32.6655C253.595 31.0489 255.519 30.3745 257.737 30.1163C260.666 29.9679 263.312 30.0797 263.312 30.0797L264.031 32.4901C263.567 33.1857 262.355 34.0759 261.793 34.467Z" fill="#F47458"/>
<path d="M264.183 10.4664C264.475 10.3392 267.539 25.6786 263.837 30.1835C260.138 34.6884 252.493 36.5651 249.509 33.3859C246.208 29.8694 245.317 13.2333 251.21 8.46827C257.105 3.70518 264.183 10.4664 264.183 10.4664Z" fill="#F7A491"/>
<path d="M253.04 0.0462473C257.871 0.71678 261.141 3.42974 262.355 4.59739C264.535 4.71685 267.554 5.72651 270.908 10.5513C275.032 16.4859 272.703 23.4898 268.563 27.1142C264.425 30.7385 264.728 34.6076 264.728 34.6076L263.915 32.648C263.312 31.1624 263.004 29.567 263.074 27.9639C263.116 27.0024 263.256 25.9581 263.6 25.0833C264.504 22.7788 261.118 21.4975 260.078 19.6921C259.278 18.3028 259.036 15.0234 257.766 12.7228L256.315 10.9964C256.315 10.9964 253.077 8.794 250.1 9.65914C247.12 10.5243 246.844 -0.81504 253.04 0.0462473Z" fill="#272936"/>
<path d="M260.453 22.4321C260.54 24.3223 261.499 25.8136 262.593 25.7635C263.687 25.7134 264.504 24.1411 264.417 22.2529C264.33 20.3627 263.372 18.8713 262.278 18.9214C261.182 18.9715 260.364 20.5438 260.453 22.4321Z" fill="#F7A491"/>
<path d="M254.283 27.197L248.284 27.2625C248.284 27.2625 248.446 29.5323 251.086 29.5805C254.303 29.6364 254.283 27.197 254.283 27.197Z" fill="white"/>
<path d="M250.76 94.8188C250.331 94.5452 249.82 93.601 246.523 91.3736C245.572 90.7301 243.941 90.6357 243.941 90.6357C243.941 90.6357 241.934 90.5355 241.778 91.0056C241.621 91.4757 241.955 92.0037 242.311 92.1675C242.667 92.3293 243.469 92.2715 243.825 92.4353C244.18 92.5972 244.65 93.7571 244.658 94.2118C244.665 94.6666 238.762 94.1714 238.762 94.1714C238.762 94.1714 237.077 93.9479 236.522 93.8284C236.049 93.7263 234.655 93.3101 234.655 93.3101C234.655 93.3101 232.639 92.8284 232.531 93.47C232.467 93.8477 234.139 94.7802 235.89 95.4065C237.777 96.0828 239.754 96.4489 239.742 96.6531C239.711 97.129 236.466 96.9363 236.466 96.9363C236.466 96.9363 234.957 96.4893 234.259 96.5124C233.375 96.0808 231.769 95.8111 231.69 96.6011C231.675 96.7475 233.758 97.7495 233.758 97.7495C233.758 97.7495 235.204 98.1329 235.882 98.3583C237.079 98.7572 238.931 98.788 239.76 98.9923C240.45 99.1618 240.181 99.3314 240.214 99.4065C240.239 99.4643 239.298 99.3796 238.007 99.2851C237.355 99.237 236.615 99.3294 235.865 99.1541C235.171 98.9923 234.189 98.9094 233.596 98.8747C231.918 98.7765 232.16 99.8651 233.712 100.216C234.303 100.349 234.947 100.489 235.6 100.628C238.142 101.17 240.552 101.11 240.591 101.391C240.641 101.755 236.234 101.593 236.234 101.593C236.234 101.593 233.839 102.195 236.132 102.709C238.791 103.306 240.921 103.2 241.014 103.191C241.65 103.121 243.966 103.559 246.132 102.963C247.729 102.524 250.004 101.829 251.09 101.493L250.76 94.8188Z" fill="#F8A492"/>
<path d="M205.54 85.8763C205.041 85.7684 204.235 85.0574 200.37 84.1037C199.254 83.8281 197.691 84.3021 197.691 84.3021C197.691 84.3021 195.773 84.8994 195.789 85.3927C195.806 85.886 196.301 86.2675 196.691 86.2983C197.082 86.3291 197.814 85.9977 198.205 86.0286C198.595 86.0575 199.438 86.9862 199.602 87.4082C199.769 87.8321 194.057 89.4005 194.057 89.4005C194.057 89.4005 192.397 89.7724 191.834 89.8514C191.355 89.9188 189.901 90.0094 189.901 90.0094C189.901 90.0094 187.843 90.2521 187.963 90.8918C188.034 91.2695 189.926 91.5662 191.788 91.5527C193.792 91.5373 195.775 91.2001 195.833 91.3947C195.97 91.8533 192.859 92.7878 192.859 92.7878C192.859 92.7878 191.287 92.888 190.642 93.1501C189.662 93.048 188.061 93.3505 188.26 94.1193C188.297 94.2618 190.599 94.4854 190.599 94.4854C190.599 94.4854 192.089 94.3466 192.802 94.3254C194.065 94.2869 195.812 93.678 196.66 93.5855C197.366 93.5085 197.175 93.7589 197.231 93.8168C197.275 93.863 196.363 94.1058 195.118 94.4642C194.492 94.6434 193.827 94.9844 193.063 95.0788C192.356 95.1655 191.405 95.4276 190.837 95.5991C189.229 96.0846 189.834 97.023 191.411 96.8187C192.012 96.7397 192.665 96.6492 193.326 96.5548C195.899 96.1867 198.141 95.3004 198.272 95.5509C198.445 95.8746 194.254 97.2426 194.254 97.2426C194.254 97.2426 192.217 98.6319 194.546 98.3255C197.248 97.969 199.21 97.1367 199.295 97.0943C199.867 96.8091 202.192 96.4237 204.019 95.1174C205.366 94.1539 207.778 91.5816 208.681 90.8918L205.54 85.8763Z" fill="#F8A492"/>
<path d="M285.961 68.0725L275.048 71.4136C275.048 71.4136 277.109 80.803 277.134 81.9244C277.134 81.9244 258.543 91.7377 250.762 94.8167L250.972 101.539C252.497 100.981 253.719 100.403 254.477 100.162C255.963 99.6896 279.741 92.4872 279.741 92.4872C279.741 92.4872 289.108 89.1943 289.419 87.412C289.728 85.6316 285.961 68.0725 285.961 68.0725Z" fill="#F7A491"/>
<path d="M289.119 74.3482C289.119 74.3482 283.885 53.2957 281.042 47.8968C278.199 42.4959 272.07 41.81 268.094 45.4748C264.118 49.1396 275.535 77.2114 275.535 77.2114L289.119 74.3482Z" fill="url(#paint2_linear_181_4417)"/>
<path d="M130.396 186.709C130.396 186.709 131.21 195.557 130.674 198.441C130.603 198.826 130.444 199.316 130.261 199.855C129.71 201.472 131.217 206.412 131.217 206.412L151.443 206.487C152.545 206.491 151.808 205.796 150.912 205.156C149.444 204.11 148.263 203.422 143.592 201.245C143.286 201.102 142.175 200.418 141.775 200.181C140.758 199.582 139.734 198.63 138.85 197.674C137.378 196.085 137.155 188.287 137.155 188.287L130.396 186.709Z" fill="#F7A491"/>
<path d="M141.773 200.181C136.442 201.613 132.478 200.732 130.255 199.873C129.704 201.487 128.67 206.948 129.286 206.948C134.358 206.948 138.651 207.906 153.183 207.676C153.702 207.669 153.639 205.886 153.3 205.493C152.363 204.409 142.175 200.418 141.773 200.181Z" fill="#B75742"/>
<path d="M153.287 172.038C153.287 172.038 157.711 179.751 158.427 182.597C158.523 182.978 158.583 183.489 158.641 184.055C158.813 185.755 162.242 189.624 162.242 189.624L180.674 181.321C181.677 180.868 180.718 180.541 179.636 180.331C177.865 179.986 176.505 179.849 171.348 179.801C171.011 179.797 169.716 179.635 169.253 179.585C168.079 179.46 166.75 179.017 165.549 178.516C163.549 177.678 160.097 170.676 160.097 170.676L153.287 172.038Z" fill="#F7A491"/>
<path d="M84.1019 26.0141C81.6742 21.1084 75.6649 18.3261 70.1852 18.3184C52.7855 18.2972 50.5724 40.6117 39.497 49.2188C36.1744 51.8007 32.4711 53.9125 29.307 56.6736C29.2567 58.533 29.5563 60.3673 30.142 62.0398C30.8359 63.8703 31.7482 65.537 32.8306 67.0727L37.5197 64.3635L35.4825 70.2673C39.6613 74.6007 45.2299 77.7954 50.6555 80.7743C58.2285 84.8264 66.2905 86.5566 74.4994 86.9285C77.5591 80.7723 79.7143 73.9475 82.0647 67.5871C84.8808 59.9627 87.2428 52.0261 87.5907 43.8873C87.8536 37.7619 86.9239 31.7155 84.1019 26.0141Z" fill="#272936"/>
<path d="M169.249 179.587C164.994 183.096 161.022 183.936 158.641 184.073C158.813 185.77 160.145 191.167 160.707 190.911C165.321 188.813 169.626 187.907 182.752 181.685C183.221 181.462 182.421 179.868 181.95 179.651C180.645 179.052 169.713 179.637 169.249 179.587Z" fill="#B75742"/>
<path d="M115.774 130.378C114.516 130.18 111.458 127.997 110.379 127.798C109.542 127.644 107.735 127.372 106.964 127.257C106.021 123.742 101.225 104.58 100.688 98.9632C100.106 92.8784 95.7899 66.5522 95.7899 66.5522L84.6121 68.5773C84.6121 68.5773 89.2548 88.8301 90.5382 98.6492C91.64 107.085 100.924 126.049 102.105 128.049C102.106 128.097 102.106 128.145 102.11 128.195C102.29 131.172 103.728 130.18 103.728 130.18L106.065 130.775C106.065 130.775 114.336 131.569 114.877 131.767C115.414 131.966 117.034 130.577 115.774 130.378Z" fill="#F7A491"/>
<path d="M87.1675 52.6233C95.0691 55.2939 98.4381 75.248 98.4381 75.248C98.4381 75.248 86.0406 78.6989 82.8649 76.8896C82.8649 76.8896 79.2601 60.9587 77.967 61.5156L87.1675 52.6233Z" fill="url(#paint3_linear_181_4417)"/>
<path d="M78.5487 51.0992C78.7536 51.1011 79.0455 51.0298 79.3451 50.9354C80.8121 50.6733 84.6682 51.5712 87.1655 52.6213C90.202 53.8988 92.0344 65.163 91.7541 77.4118C91.642 79.2846 90.2252 108.127 90.0822 108.22C86.46 110.543 64.8795 111.678 63.3776 109.699C61.8758 107.721 60.718 73.5292 59.9874 72.3308L58.5513 51.4171C61.0872 50.6618 74.6637 51.0722 78.5487 51.0992Z" fill="url(#paint4_linear_181_4417)"/>
<path d="M69.6924 43.3978C69.6924 43.3978 71.0995 50.6523 70.8173 53.5155C70.5351 56.3769 71.8901 65.6005 77.967 65.6314C84.0439 65.6622 79.1209 53.9047 78.5488 51.1012C77.9767 48.2977 77.8414 39.6155 77.8414 39.6155L69.6924 43.3978Z" fill="#F7A491"/>
<path d="M77.967 43.9701C77.8723 41.5943 77.8414 39.6155 77.8414 39.6155L69.6924 43.3998C69.6924 43.3998 69.9804 44.8834 70.2684 46.7736C73.8365 47.4865 76.4207 46.1705 77.967 43.9701Z" fill="#F47458"/>
<path d="M66.7137 23.3742C66.7137 23.3742 63.5728 25.1103 62.4267 28.8753C61.2785 32.6383 62.5851 42.3514 70.6974 44.6944C78.8077 47.0375 82.3217 39.3475 80.6517 33.3359C78.9797 27.3223 75.3459 19.7094 66.7137 23.3742Z" fill="#F7A491"/>
<path d="M81.6644 31.0044C81.5059 32.6191 80.611 33.8542 79.6678 33.7617C78.7245 33.6692 78.0886 32.2858 78.2471 30.6711C78.4056 29.0564 79.3005 27.8213 80.2438 27.9138C81.187 28.0063 81.8229 29.3898 81.6644 31.0044Z" fill="#F7A491"/>
<path d="M67.6648 22.8848C67.6648 22.8848 66.1939 33.7193 62.68 35.6731C59.166 37.6288 60.6369 42.4343 60.6369 42.4343C60.6369 42.4343 57.4496 31.2741 60.2291 27.6903C63.0066 24.1064 67.6648 22.8848 67.6648 22.8848Z" fill="#13375B"/>
<path d="M64.7617 37.2282C65.7146 38.6406 65.7107 40.3053 64.7539 40.947C63.7972 41.5886 62.2489 40.9643 61.296 39.5539C60.3431 38.1415 60.347 36.4767 61.3037 35.8351C62.2605 35.1935 63.8087 35.8178 64.7617 37.2282Z" fill="#F7A491"/>
<path d="M76.5793 37.8313L70.8618 39.2649C70.8618 39.2649 71.5499 41.4287 74.082 40.8718C77.1707 40.1936 76.5793 37.8313 76.5793 37.8313Z" fill="white"/>
<path d="M25.2268 133.401C25.3196 133.139 25.5476 133.126 25.7815 133.112C28.0411 132.972 30.2967 132.8 32.5272 132.396C32.9003 132.328 33.2656 132.232 33.6058 132.085C34.2224 131.818 34.837 131.804 35.4729 131.958C35.817 132.041 36.163 132.049 36.5148 132.035C37.6513 131.995 40.8598 130.792 42.5163 130.451C42.8952 130.372 43.187 130.078 43.2701 129.7C44.7063 123.187 47.7641 108.578 48.0695 103.798C48.4599 97.682 51.8154 70.063 51.8154 70.063L63.2135 72.8492C63.2135 72.8492 59.2028 93.285 58.2267 103.164C57.4729 110.792 50.3657 127.151 48.1255 131.862C47.0682 135.349 44.4531 135.527 43.8481 135.619C43.5021 135.673 43.187 135.852 42.9667 136.126C42.5685 136.617 42.1104 137.049 41.5808 137.407C41.1884 137.671 40.8888 138.01 40.6376 138.403C40.1795 139.118 39.7736 139.86 39.3715 140.606C39.1048 141.101 38.8149 141.263 38.3935 141.161C37.9412 141.053 37.717 140.729 37.7093 140.184C37.6957 139.378 37.9315 138.642 38.3143 137.943C38.6738 137.288 38.6332 136.916 38.1732 136.338C37.9084 136.006 37.6358 135.685 37.2937 135.425C36.9458 135.161 36.5824 134.962 36.1243 135.041C35.3183 135.268 34.5046 135.459 33.6754 135.577L32.9969 135.737C32.9737 135.741 32.6258 135.827 32.6258 135.827C32.5678 135.845 31.3714 136.012 30.9597 136.026C30.6292 136.037 30.0938 136.076 29.6395 136.112C29.2278 136.145 28.3484 135.958 28.3194 135.958C27.9173 135.962 27.5578 135.829 27.2505 135.569C27.1249 135.463 27.0031 135.344 27.0592 135.155C27.1113 134.981 27.2428 134.904 27.4167 134.868C27.6873 134.81 29.0848 134.596 29.0674 134.538C28.6499 134.552 27.3452 134.561 26.9277 134.563C26.3653 134.565 25.8724 134.38 25.4723 133.979C25.3138 133.821 25.1321 133.665 25.2268 133.401Z" fill="#F7A491"/>
<path d="M58.8586 51.342C53.2784 50.3304 48.2317 75.248 48.2317 75.248C48.2317 75.248 60.6291 78.6989 63.8048 76.8897C63.8048 76.8897 67.4096 60.9587 68.7027 61.5156L58.8586 51.342Z" fill="url(#paint5_linear_181_4417)"/>
<path d="M90.3778 106.17V110.717L133.257 119.706L143.899 151.575L137.969 147.539L139.339 196.615L130.321 196.676C130.321 196.676 114.693 155.502 119.819 134.795L72.3635 135.519C72.3635 135.519 50.8564 127.239 61.953 102.276L90.3778 106.17Z" fill="#2F3342"/>
<path d="M90.3779 110.715C90.3779 110.715 134.859 111.012 138.017 113.438C141.176 115.864 164.88 176.129 164.88 176.129L154.541 179.978C154.541 179.978 133.974 145.789 132.886 143.35C131.797 140.91 123.83 123.081 120.79 121.262C117.749 119.444 90.3779 110.715 90.3779 110.715Z" fill="#2F3342"/>
<defs>
<linearGradient id="paint0_linear_181_4417" x1="234.201" y1="41.7541" x2="258.839" y2="58.5484" gradientUnits="userSpaceOnUse">
<stop stop-color="#4F14A0"/>
<stop offset="1" stop-color="#8066FF"/>
</linearGradient>
<linearGradient id="paint1_linear_181_4417" x1="236.497" y1="41.6409" x2="293.237" y2="93.0269" gradientUnits="userSpaceOnUse">
<stop stop-color="#4F14A0"/>
<stop offset="1" stop-color="#8066FF"/>
</linearGradient>
<linearGradient id="paint2_linear_181_4417" x1="268.835" y1="43.186" x2="294.308" y2="66.2256" gradientUnits="userSpaceOnUse">
<stop stop-color="#4F14A0"/>
<stop offset="1" stop-color="#8066FF"/>
</linearGradient>
<linearGradient id="paint3_linear_181_4417" x1="79.4485" y1="52.6233" x2="97.8932" y2="74.0589" gradientUnits="userSpaceOnUse">
<stop stop-color="#4F14A0"/>
<stop offset="1" stop-color="#8066FF"/>
</linearGradient>
<linearGradient id="paint4_linear_181_4417" x1="60.9561" y1="50.8894" x2="104.64" y2="85.0396" gradientUnits="userSpaceOnUse">
<stop stop-color="#4F14A0"/>
<stop offset="1" stop-color="#8066FF"/>
</linearGradient>
<linearGradient id="paint5_linear_181_4417" x1="49.7131" y1="51.312" x2="69.2578" y2="72.8849" gradientUnits="userSpaceOnUse">
<stop stop-color="#4F14A0"/>
<stop offset="1" stop-color="#8066FF"/>
</linearGradient>
</defs>
</svg>
