<svg width="360" height="780" viewBox="0 0 360 780" fill="none" xmlns="http://www.w3.org/2000/svg">
<g clip-path="url(#clip0_181_4706)">
<rect width="360" height="780" fill="url(#paint0_linear_181_4706)"/>
<g opacity="0.23">
<path d="M340.799 76.7883C340.381 76.7883 340.049 77.1266 340.049 77.5381C340.049 77.9552 340.387 78.2878 340.799 78.2878C341.216 78.2878 341.549 77.9496 341.549 77.5381C341.549 77.1266 341.216 76.7883 340.799 76.7883Z" fill="white"/>
<path d="M345.14 76.7883C344.723 76.7883 344.39 77.1266 344.39 77.5381C344.39 77.9552 344.728 78.2878 345.14 78.2878C345.557 78.2878 345.89 77.9496 345.89 77.5381C345.896 77.1266 345.557 76.7883 345.14 76.7883Z" fill="white"/>
<path d="M349.487 76.7883C349.069 76.7883 348.737 77.1266 348.737 77.5381C348.737 77.9552 349.075 78.2878 349.487 78.2878C349.904 78.2878 350.237 77.9496 350.237 77.5381C350.237 77.1266 349.898 76.7883 349.487 76.7883Z" fill="white"/>
<path d="M353.828 78.2878C354.242 78.2878 354.578 77.9521 354.578 77.5381C354.578 77.124 354.242 76.7883 353.828 76.7883C353.414 76.7883 353.078 77.124 353.078 77.5381C353.078 77.9521 353.414 78.2878 353.828 78.2878Z" fill="white"/>
<path d="M358.17 78.2934C358.587 78.2934 358.92 77.9552 358.92 77.5437C358.92 77.1265 358.581 76.7939 358.17 76.7939C357.753 76.7939 357.42 77.1322 357.42 77.5437C357.42 77.9552 357.758 78.2934 358.17 78.2934Z" fill="white"/>
<path d="M340.798 82.386C340.381 82.386 340.048 82.7242 340.048 83.1357C340.048 83.5529 340.387 83.8854 340.798 83.8854C341.215 83.8854 341.548 83.5472 341.548 83.1357C341.548 82.7242 341.215 82.386 340.798 82.386Z" fill="white"/>
<path d="M345.14 82.386C344.723 82.386 344.39 82.7242 344.39 83.1357C344.39 83.5529 344.728 83.8854 345.14 83.8854C345.557 83.8854 345.89 83.5472 345.89 83.1357C345.896 82.7242 345.557 82.386 345.14 82.386Z" fill="white"/>
<path d="M349.487 83.8911C349.901 83.8911 350.237 83.5554 350.237 83.1413C350.237 82.7273 349.901 82.3916 349.487 82.3916C349.073 82.3916 348.737 82.7273 348.737 83.1413C348.737 83.5554 349.073 83.8911 349.487 83.8911Z" fill="white"/>
<path d="M353.828 82.386C353.411 82.386 353.078 82.7242 353.078 83.1357C353.078 83.5529 353.416 83.8854 353.828 83.8854C354.245 83.8854 354.578 83.5472 354.578 83.1357C354.578 82.7242 354.245 82.386 353.828 82.386Z" fill="white"/>
<path d="M358.17 82.386C357.753 82.386 357.42 82.7242 357.42 83.1357C357.42 83.5529 357.758 83.8854 358.17 83.8854C358.587 83.8854 358.92 83.5472 358.92 83.1357C358.925 82.7242 358.587 82.386 358.17 82.386Z" fill="white"/>
<path d="M340.818 89.4945C341.232 89.488 341.562 89.1471 341.556 88.733C341.549 88.319 341.208 87.9887 340.794 87.9952C340.38 88.0018 340.05 88.3427 340.056 88.7567C340.063 89.1708 340.404 89.5011 340.818 89.4945Z" fill="white"/>
<path d="M345.14 89.4887C345.554 89.4887 345.89 89.1531 345.89 88.739C345.89 88.3249 345.554 87.9893 345.14 87.9893C344.726 87.9893 344.39 88.3249 344.39 88.739C344.39 89.1531 344.726 89.4887 345.14 89.4887Z" fill="white"/>
<path d="M349.487 87.9836C349.069 87.9836 348.737 88.3219 348.737 88.7334C348.737 89.1449 349.075 89.4831 349.487 89.4831C349.904 89.4831 350.237 89.1449 350.237 88.7334C350.237 88.3219 349.898 87.9836 349.487 87.9836Z" fill="white"/>
<path d="M353.828 87.9836C353.411 87.9836 353.078 88.3219 353.078 88.7334C353.078 89.1449 353.416 89.4831 353.828 89.4831C354.245 89.4831 354.578 89.1449 354.578 88.7334C354.578 88.3219 354.245 87.9836 353.828 87.9836Z" fill="white"/>
<path d="M358.17 87.9836C357.753 87.9836 357.42 88.3219 357.42 88.7334C357.42 89.1505 357.758 89.4831 358.17 89.4831C358.587 89.4831 358.92 89.1449 358.92 88.7334C358.925 88.3219 358.587 87.9836 358.17 87.9836Z" fill="white"/>
<path d="M340.798 93.5869C340.381 93.5869 340.048 93.9251 340.048 94.3366C340.048 94.7538 340.387 95.0864 340.798 95.0864C341.215 95.0864 341.548 94.7482 341.548 94.3366C341.548 93.9195 341.215 93.5869 340.798 93.5869Z" fill="white"/>
<path d="M345.14 93.5869C344.723 93.5869 344.39 93.9251 344.39 94.3366C344.39 94.7538 344.728 95.0864 345.14 95.0864C345.557 95.0864 345.89 94.7482 345.89 94.3366C345.896 93.9195 345.557 93.5869 345.14 93.5869Z" fill="white"/>
<path d="M349.487 93.5869C349.069 93.5869 348.737 93.9251 348.737 94.3366C348.737 94.7538 349.075 95.0864 349.487 95.0864C349.904 95.0864 350.237 94.7482 350.237 94.3366C350.237 93.9195 349.898 93.5869 349.487 93.5869Z" fill="white"/>
<path d="M353.828 93.5869C353.411 93.5869 353.078 93.9251 353.078 94.3366C353.078 94.7538 353.416 95.0864 353.828 95.0864C354.245 95.0864 354.578 94.7482 354.578 94.3366C354.578 93.9195 354.245 93.5869 353.828 93.5869Z" fill="white"/>
<path d="M358.17 93.5869C357.753 93.5869 357.42 93.9251 357.42 94.3366C357.42 94.7538 357.758 95.0864 358.17 95.0864C358.587 95.0864 358.92 94.7482 358.92 94.3366C358.925 93.9195 358.587 93.5869 358.17 93.5869Z" fill="white"/>
<path d="M340.798 99.1843C340.381 99.1843 340.048 99.5226 340.048 99.9341C340.048 100.351 340.387 100.684 340.798 100.684C341.215 100.684 341.548 100.346 341.548 99.9341C341.548 99.5226 341.215 99.1843 340.798 99.1843Z" fill="white"/>
<path d="M345.14 99.1843C344.723 99.1843 344.39 99.5226 344.39 99.9341C344.39 100.351 344.728 100.684 345.14 100.684C345.557 100.684 345.89 100.346 345.89 99.9341C345.896 99.5226 345.557 99.1843 345.14 99.1843Z" fill="white"/>
<path d="M349.487 99.1843C349.069 99.1843 348.737 99.5226 348.737 99.9341C348.737 100.351 349.075 100.684 349.487 100.684C349.904 100.684 350.237 100.346 350.237 99.9341C350.237 99.5226 349.898 99.1843 349.487 99.1843Z" fill="white"/>
<path d="M353.828 99.1843C353.411 99.1843 353.078 99.5226 353.078 99.9341C353.078 100.351 353.416 100.684 353.828 100.684C354.245 100.684 354.578 100.346 354.578 99.9341C354.578 99.5226 354.245 99.1843 353.828 99.1843Z" fill="white"/>
<path d="M358.17 99.1843C357.753 99.1843 357.42 99.5226 357.42 99.9341C357.42 100.351 357.758 100.684 358.17 100.684C358.587 100.684 358.92 100.346 358.92 99.9341C358.925 99.5226 358.587 99.1843 358.17 99.1843Z" fill="white"/>
<path d="M340.798 104.782C340.381 104.782 340.048 105.12 340.048 105.532C340.048 105.949 340.387 106.281 340.798 106.281C341.215 106.281 341.548 105.943 341.548 105.532C341.548 105.12 341.215 104.782 340.798 104.782Z" fill="white"/>
<path d="M345.14 104.782C344.723 104.782 344.39 105.12 344.39 105.532C344.39 105.949 344.728 106.281 345.14 106.281C345.557 106.281 345.89 105.943 345.89 105.532C345.896 105.12 345.557 104.782 345.14 104.782Z" fill="white"/>
<path d="M349.487 104.782C349.069 104.782 348.737 105.12 348.737 105.532C348.737 105.949 349.075 106.281 349.487 106.281C349.904 106.281 350.237 105.943 350.237 105.532C350.237 105.12 349.898 104.782 349.487 104.782Z" fill="white"/>
<path d="M353.828 104.782C353.411 104.782 353.078 105.12 353.078 105.532C353.078 105.949 353.416 106.281 353.828 106.281C354.245 106.281 354.578 105.943 354.578 105.532C354.578 105.12 354.245 104.782 353.828 104.782Z" fill="white"/>
<path d="M358.17 104.782C357.753 104.782 357.42 105.12 357.42 105.532C357.42 105.949 357.758 106.281 358.17 106.281C358.587 106.281 358.92 105.943 358.92 105.532C358.925 105.12 358.587 104.782 358.17 104.782Z" fill="white"/>
<path d="M340.798 110.385C340.381 110.385 340.048 110.723 340.048 111.135C340.048 111.552 340.387 111.885 340.798 111.885C341.215 111.885 341.548 111.546 341.548 111.135C341.548 110.718 341.215 110.385 340.798 110.385Z" fill="white"/>
<path d="M345.14 110.385C344.723 110.385 344.39 110.723 344.39 111.135C344.39 111.552 344.728 111.885 345.14 111.885C345.557 111.885 345.89 111.546 345.89 111.135C345.896 110.718 345.557 110.385 345.14 110.385Z" fill="white"/>
<path d="M349.487 110.385C349.069 110.385 348.737 110.723 348.737 111.135C348.737 111.552 349.075 111.885 349.487 111.885C349.904 111.885 350.237 111.546 350.237 111.135C350.237 110.718 349.898 110.385 349.487 110.385Z" fill="white"/>
<path d="M353.828 110.385C353.411 110.385 353.078 110.723 353.078 111.135C353.078 111.552 353.416 111.885 353.828 111.885C354.245 111.885 354.578 111.546 354.578 111.135C354.578 110.718 354.245 110.385 353.828 110.385Z" fill="white"/>
<path d="M358.17 110.385C357.753 110.385 357.42 110.723 357.42 111.135C357.42 111.552 357.758 111.885 358.17 111.885C358.587 111.885 358.92 111.546 358.92 111.135C358.925 110.718 358.587 110.385 358.17 110.385Z" fill="white"/>
<path d="M121.346 214.096C120.928 214.096 120.596 214.434 120.596 214.846C120.596 215.263 120.934 215.595 121.346 215.595C121.763 215.595 122.095 215.257 122.095 214.846C122.095 214.434 121.763 214.096 121.346 214.096Z" fill="white"/>
<path d="M125.687 214.096C125.27 214.096 124.937 214.434 124.937 214.846C124.937 215.263 125.275 215.595 125.687 215.595C126.104 215.595 126.437 215.257 126.437 214.846C126.442 214.434 126.104 214.096 125.687 214.096Z" fill="white"/>
<path d="M130.034 214.096C129.617 214.096 129.284 214.434 129.284 214.846C129.284 215.263 129.622 215.595 130.034 215.595C130.451 215.595 130.784 215.257 130.784 214.846C130.784 214.434 130.446 214.096 130.034 214.096Z" fill="white"/>
<path d="M134.375 214.096C133.958 214.096 133.625 214.434 133.625 214.846C133.625 215.263 133.964 215.595 134.375 215.595C134.787 215.595 135.125 215.257 135.125 214.846C135.125 214.434 134.793 214.096 134.375 214.096Z" fill="white"/>
<path d="M138.717 215.601C139.134 215.601 139.467 215.263 139.467 214.851C139.467 214.434 139.128 214.102 138.717 214.102C138.299 214.102 137.967 214.44 137.967 214.851C137.967 215.263 138.305 215.601 138.717 215.601Z" fill="white"/>
<path d="M121.346 219.694C120.928 219.694 120.596 220.032 120.596 220.443C120.596 220.86 120.934 221.193 121.346 221.193C121.763 221.193 122.095 220.855 122.095 220.443C122.095 220.032 121.763 219.694 121.346 219.694Z" fill="white"/>
<path d="M125.687 219.694C125.27 219.694 124.937 220.032 124.937 220.443C124.937 220.86 125.275 221.193 125.687 221.193C126.104 221.193 126.437 220.855 126.437 220.443C126.442 220.032 126.104 219.694 125.687 219.694Z" fill="white"/>
<path d="M130.034 219.694C129.617 219.694 129.284 220.032 129.284 220.443C129.284 220.86 129.622 221.193 130.034 221.193C130.451 221.193 130.784 220.855 130.784 220.443C130.784 220.032 130.446 219.694 130.034 219.694Z" fill="white"/>
<path d="M134.375 219.694C133.958 219.694 133.625 220.032 133.625 220.443C133.625 220.86 133.964 221.193 134.375 221.193C134.787 221.193 135.125 220.855 135.125 220.443C135.125 220.032 134.793 219.694 134.375 219.694Z" fill="white"/>
<path d="M138.717 221.193C139.131 221.193 139.467 220.857 139.467 220.443C139.467 220.029 139.131 219.694 138.717 219.694C138.303 219.694 137.967 220.029 137.967 220.443C137.967 220.857 138.303 221.193 138.717 221.193Z" fill="white"/>
<path d="M121.346 225.291C120.928 225.291 120.596 225.629 120.596 226.041C120.596 226.458 120.934 226.791 121.346 226.791C121.763 226.791 122.095 226.452 122.095 226.041C122.095 225.629 121.763 225.291 121.346 225.291Z" fill="white"/>
<path d="M125.687 225.291C125.27 225.291 124.937 225.629 124.937 226.041C124.937 226.458 125.275 226.791 125.687 226.791C126.104 226.791 126.437 226.452 126.437 226.041C126.442 225.629 126.104 225.291 125.687 225.291Z" fill="white"/>
<path d="M130.034 226.796C130.448 226.796 130.784 226.461 130.784 226.047C130.784 225.633 130.448 225.297 130.034 225.297C129.62 225.297 129.284 225.633 129.284 226.047C129.284 226.461 129.62 226.796 130.034 226.796Z" fill="white"/>
<path d="M134.375 226.796C134.789 226.796 135.125 226.461 135.125 226.047C135.125 225.633 134.789 225.297 134.375 225.297C133.961 225.297 133.625 225.633 133.625 226.047C133.625 226.461 133.961 226.796 134.375 226.796Z" fill="white"/>
<path d="M138.717 225.291C138.299 225.291 137.967 225.629 137.967 226.041C137.967 226.452 138.305 226.791 138.717 226.791C139.134 226.791 139.467 226.452 139.467 226.041C139.467 225.629 139.134 225.291 138.717 225.291Z" fill="white"/>
<path d="M121.346 230.895C120.928 230.895 120.596 231.233 120.596 231.644C120.596 232.061 120.934 232.394 121.346 232.394C121.763 232.394 122.095 232.056 122.095 231.644C122.095 231.227 121.763 230.895 121.346 230.895Z" fill="white"/>
<path d="M125.687 232.394C126.101 232.394 126.437 232.058 126.437 231.644C126.437 231.23 126.101 230.895 125.687 230.895C125.273 230.895 124.937 231.23 124.937 231.644C124.937 232.058 125.273 232.394 125.687 232.394Z" fill="white"/>
<path d="M130.034 230.895C129.617 230.895 129.284 231.233 129.284 231.644C129.284 232.056 129.622 232.394 130.034 232.394C130.451 232.394 130.784 232.056 130.784 231.644C130.784 231.233 130.446 230.895 130.034 230.895Z" fill="white"/>
<path d="M134.375 230.895C133.958 230.895 133.625 231.233 133.625 231.644C133.625 232.056 133.964 232.394 134.375 232.394C134.787 232.394 135.125 232.056 135.125 231.644C135.125 231.233 134.793 230.895 134.375 230.895Z" fill="white"/>
<path d="M138.717 230.895C138.299 230.895 137.967 231.233 137.967 231.644C137.967 232.056 138.305 232.394 138.717 232.394C139.134 232.394 139.467 232.056 139.467 231.644C139.472 231.227 139.134 230.895 138.717 230.895Z" fill="white"/>
<path d="M121.346 237.991C121.76 237.991 122.095 237.656 122.095 237.242C122.095 236.828 121.76 236.492 121.346 236.492C120.931 236.492 120.596 236.828 120.596 237.242C120.596 237.656 120.931 237.991 121.346 237.991Z" fill="white"/>
<path d="M125.687 236.492C125.27 236.492 124.937 236.83 124.937 237.242C124.937 237.659 125.275 237.991 125.687 237.991C126.104 237.991 126.437 237.653 126.437 237.242C126.442 236.83 126.104 236.492 125.687 236.492Z" fill="white"/>
<path d="M130.034 236.492C129.617 236.492 129.284 236.83 129.284 237.242C129.284 237.659 129.622 237.991 130.034 237.991C130.451 237.991 130.784 237.653 130.784 237.242C130.784 236.83 130.446 236.492 130.034 236.492Z" fill="white"/>
<path d="M134.375 236.492C133.958 236.492 133.625 236.83 133.625 237.242C133.625 237.659 133.964 237.991 134.375 237.991C134.787 237.991 135.125 237.653 135.125 237.242C135.125 236.83 134.793 236.492 134.375 236.492Z" fill="white"/>
<path d="M138.717 236.492C138.299 236.492 137.967 236.83 137.967 237.242C137.967 237.659 138.305 237.991 138.717 237.991C139.134 237.991 139.467 237.653 139.467 237.242C139.472 236.83 139.134 236.492 138.717 236.492Z" fill="white"/>
<path d="M121.346 242.09C120.928 242.09 120.596 242.428 120.596 242.839C120.596 243.256 120.934 243.589 121.346 243.589C121.763 243.589 122.095 243.251 122.095 242.839C122.095 242.428 121.763 242.09 121.346 242.09Z" fill="white"/>
<path d="M125.687 242.09C125.27 242.09 124.937 242.428 124.937 242.839C124.937 243.256 125.275 243.589 125.687 243.589C126.104 243.589 126.437 243.251 126.437 242.839C126.442 242.428 126.104 242.09 125.687 242.09Z" fill="white"/>
<path d="M130.034 242.09C129.617 242.09 129.284 242.428 129.284 242.839C129.284 243.251 129.622 243.589 130.034 243.589C130.451 243.589 130.784 243.251 130.784 242.839C130.784 242.428 130.446 242.09 130.034 242.09Z" fill="white"/>
<path d="M134.375 242.09C133.958 242.09 133.625 242.428 133.625 242.839C133.625 243.251 133.964 243.589 134.375 243.589C134.787 243.589 135.125 243.251 135.125 242.839C135.125 242.428 134.793 242.09 134.375 242.09Z" fill="white"/>
<path d="M138.717 242.09C138.299 242.09 137.967 242.428 137.967 242.839C137.967 243.251 138.305 243.589 138.717 243.589C139.134 243.589 139.467 243.251 139.467 242.839C139.472 242.428 139.134 242.09 138.717 242.09Z" fill="white"/>
<path d="M121.346 249.192C121.76 249.192 122.095 248.857 122.095 248.443C122.095 248.029 121.76 247.693 121.346 247.693C120.931 247.693 120.596 248.029 120.596 248.443C120.596 248.857 120.931 249.192 121.346 249.192Z" fill="white"/>
<path d="M125.687 247.693C125.27 247.693 124.937 248.031 124.937 248.443C124.937 248.854 125.275 249.192 125.687 249.192C126.104 249.192 126.437 248.854 126.437 248.443C126.437 248.031 126.104 247.693 125.687 247.693Z" fill="white"/>
<path d="M130.034 247.693C129.617 247.693 129.284 248.031 129.284 248.443C129.284 248.854 129.622 249.192 130.034 249.192C130.451 249.192 130.784 248.854 130.784 248.443C130.784 248.025 130.446 247.693 130.034 247.693Z" fill="white"/>
<path d="M134.375 247.693C133.958 247.693 133.625 248.031 133.625 248.443C133.625 248.86 133.964 249.192 134.375 249.192C134.787 249.192 135.125 248.854 135.125 248.443C135.125 248.025 134.793 247.693 134.375 247.693Z" fill="white"/>
<path d="M138.717 247.693C138.299 247.693 137.967 248.031 137.967 248.443C137.967 248.86 138.305 249.192 138.717 249.192C139.134 249.192 139.467 248.854 139.467 248.443C139.472 248.025 139.134 247.693 138.717 247.693Z" fill="white"/>
<path d="M125.016 127.725H123.234C122.839 127.725 122.524 127.403 122.524 127.015V125.233C122.524 124.839 122.202 124.523 121.813 124.523C121.419 124.523 121.103 124.844 121.103 125.233V127.015C121.103 127.409 120.781 127.725 120.392 127.725H118.611C118.216 127.725 117.9 128.046 117.9 128.435C117.9 128.83 118.222 129.145 118.611 129.145H120.392C120.787 129.145 121.103 129.467 121.103 129.856V131.637C121.103 132.032 121.424 132.347 121.813 132.347C122.208 132.347 122.524 132.026 122.524 131.637V129.856C122.524 129.461 122.845 129.145 123.234 129.145H125.016C125.41 129.145 125.726 128.824 125.726 128.435C125.726 128.04 125.41 127.725 125.016 127.725Z" fill="white"/>
<path d="M142.291 137.223H141.209C140.972 137.223 140.775 137.032 140.775 136.789V135.707C140.775 135.47 140.583 135.273 140.341 135.273C140.104 135.273 139.906 135.465 139.906 135.707V136.789C139.906 137.026 139.715 137.223 139.472 137.223H138.39C138.153 137.223 137.956 137.415 137.956 137.657C137.956 137.894 138.147 138.091 138.39 138.091H139.472C139.709 138.091 139.906 138.283 139.906 138.526V139.608C139.906 139.845 140.098 140.042 140.341 140.042C140.577 140.042 140.775 139.85 140.775 139.608V138.526C140.775 138.289 140.966 138.091 141.209 138.091H142.291C142.528 138.091 142.725 137.9 142.725 137.657C142.725 137.415 142.528 137.223 142.291 137.223Z" fill="url(#paint1_linear_181_4706)"/>
<path d="M349.802 194.372H348.72C348.483 194.372 348.286 194.18 348.286 193.938V192.856C348.286 192.619 348.094 192.422 347.852 192.422C347.615 192.422 347.418 192.613 347.418 192.856V193.938C347.418 194.175 347.226 194.372 346.983 194.372H345.901C345.664 194.372 345.467 194.564 345.467 194.806C345.467 195.043 345.658 195.24 345.901 195.24H346.983C347.22 195.24 347.418 195.432 347.418 195.674V196.757C347.418 196.993 347.609 197.191 347.852 197.191C348.089 197.191 348.286 196.999 348.286 196.757V195.674C348.286 195.437 348.478 195.24 348.72 195.24H349.802C350.039 195.24 350.237 195.048 350.237 194.806C350.237 194.564 350.045 194.372 349.802 194.372Z" fill="white"/>
<path d="M62.6468 37.729H61.5642C61.3274 37.729 61.1301 37.5373 61.1301 37.2949V36.2126C61.1301 35.9759 60.9384 35.7786 60.696 35.7786C60.4592 35.7786 60.2618 35.9702 60.2618 36.2126V37.2949C60.2618 37.5317 60.0701 37.729 59.8277 37.729H58.7452C58.5084 37.729 58.311 37.9207 58.311 38.163C58.311 38.3998 58.5027 38.5971 58.7452 38.5971H59.8277C60.0645 38.5971 60.2618 38.7888 60.2618 39.0312V40.1135C60.2618 40.3502 60.4535 40.5475 60.696 40.5475C60.9328 40.5475 61.1301 40.3559 61.1301 40.1135V39.0312C61.1301 38.7944 61.3218 38.5971 61.5642 38.5971H62.6468C62.8836 38.5971 63.0809 38.4054 63.0809 38.163C63.0809 37.9263 62.8836 37.729 62.6468 37.729Z" fill="white"/>
<path d="M317.597 105.859H316.515C316.278 105.859 316.081 105.667 316.081 105.425V104.342C316.081 104.106 315.889 103.908 315.647 103.908C315.41 103.908 315.213 104.1 315.213 104.342V105.425C315.213 105.661 315.021 105.859 314.778 105.859H313.696C313.459 105.859 313.262 106.05 313.262 106.293C313.262 106.529 313.453 106.727 313.696 106.727H314.778C315.015 106.727 315.213 106.918 315.213 107.161V108.232C315.213 108.469 315.404 108.666 315.647 108.666C315.883 108.666 316.081 108.474 316.081 108.232V107.15C316.081 106.913 316.273 106.715 316.515 106.715H317.597C317.834 106.715 318.032 106.524 318.032 106.281C318.032 106.05 317.84 105.859 317.597 105.859Z" fill="url(#paint2_linear_181_4706)"/>
<path d="M86.2649 213.662H85.1824C84.9456 213.662 84.7483 213.47 84.7483 213.228V212.146C84.7483 211.909 84.5566 211.712 84.3141 211.712C84.0773 211.712 83.88 211.903 83.88 212.146V213.228C83.88 213.465 83.6883 213.662 83.4459 213.662H82.3633C82.1265 213.662 81.9292 213.854 81.9292 214.096C81.9292 214.333 82.1209 214.53 82.3633 214.53H83.4459C83.6827 214.53 83.88 214.722 83.88 214.964V216.047C83.88 216.283 84.0717 216.481 84.3141 216.481C84.5509 216.481 84.7483 216.289 84.7483 216.047V214.964C84.7483 214.727 84.94 214.53 85.1824 214.53H86.2649C86.5017 214.53 86.6991 214.339 86.6991 214.096C86.6934 213.854 86.5017 213.662 86.2649 213.662Z" fill="white"/>
<path d="M415.87 108.423C406.804 109.478 399.65 108.655 394.31 107.273C375.18 102.335 372.282 83.502 369.728 66.8895C368.008 55.7168 366.39 45.1586 359.912 41.1506C356.078 38.7774 350.705 38.738 343.494 41.0379C331.332 44.9162 322.204 44.189 316.352 38.8845C311.785 34.7469 309.276 27.6893 309.101 18.484C308.966 11.6124 310.144 6.03729 310.195 5.80054L311.847 6.15567C311.802 6.37552 307.241 28.3432 317.491 37.6331C322.864 42.5035 331.439 43.101 342.981 39.4257C350.699 36.9679 356.529 37.0581 360.808 39.7132C367.946 44.1326 369.627 55.0629 371.403 66.6358C373.878 82.7353 376.68 100.983 394.733 105.639C432.774 115.459 480.455 76.8333 480.929 76.4443L482 77.7521C481.882 77.8536 469.72 87.7579 452.958 96.2981C438.203 103.812 425.873 107.262 415.87 108.423Z" fill="url(#paint3_linear_181_4706)"/>
<path d="M70.8616 644.702C79.6176 647.273 85.8816 650.83 90.2568 654.184C105.936 666.208 101.24 684.669 97.0958 700.96C94.3106 711.919 91.6776 722.268 96.0697 728.486C98.6689 732.173 103.602 734.304 111.14 735.008C123.849 736.192 131.968 740.425 135.283 747.596C137.865 753.188 137.42 760.662 133.986 769.203C131.421 775.578 128.162 780.251 128.021 780.449L126.634 779.479C126.764 779.293 139.545 760.854 133.744 748.3C130.705 741.722 123.043 737.815 110.983 736.694C102.92 735.944 97.5864 733.576 94.6884 729.467C89.8509 722.607 92.5741 711.891 95.4608 700.549C99.4751 684.765 104.025 666.873 89.2307 655.531C58.0574 631.63 -0.928754 648.547 -1.5264 648.721L-2 647.092C-1.84777 647.047 13.2117 642.679 31.981 641.371C48.5008 640.221 61.1978 641.861 70.8616 644.702Z" fill="white"/>
<path d="M223.131 0.0845947C218.879 13.2133 225.606 28.253 236.837 36.2746C248.068 44.2962 262.789 46.1508 276.462 44.268C280.149 43.7606 283.927 42.9996 287.557 43.8226C296.906 45.9422 301.168 57.1712 309.659 61.6245C317.846 65.92 328.344 62.7632 335.194 56.5624C342.044 50.3617 346.064 41.7087 349.904 33.3039C352.165 28.3545 354.431 23.3995 356.692 18.4502" stroke="white" stroke-miterlimit="10"/>
<path d="M324.723 462C320.472 475.129 327.198 490.168 338.429 498.19C349.66 506.212 364.381 508.066 378.054 506.183C381.741 505.676 385.519 504.915 389.15 505.738C398.498 507.858 402.76 519.087 411.251 523.54C419.438 527.835 429.936 524.679 436.786 518.478C443.637 512.277 447.657 503.624 451.496 495.219C453.757 490.27 456.024 485.315 458.285 480.366" stroke="white" stroke-miterlimit="10"/>
<path d="M209.261 334.921C212.976 321.95 207.919 306.555 199.09 297.976C190.26 289.402 178.493 286.848 167.477 288.1C164.505 288.438 161.461 289.019 158.563 288.021C151.109 285.456 147.946 273.99 141.237 269.125C134.77 264.435 126.273 267.102 120.629 273.004C114.991 278.9 111.569 287.389 108.293 295.636C106.365 300.496 104.437 305.355 102.508 310.214" stroke="white" stroke-miterlimit="10"/>
<path d="M310.853 796.837C314.569 783.866 309.511 768.471 300.682 759.891C291.853 751.317 280.086 748.764 269.069 750.015C266.098 750.353 263.053 750.934 260.155 749.936C252.701 747.371 249.538 735.905 242.829 731.041C236.362 726.351 227.865 729.017 222.222 734.919C216.583 740.815 213.161 749.305 209.885 757.552C207.957 762.411 206.029 767.27 204.101 772.129" stroke="white" stroke-miterlimit="10"/>
<path d="M182.79 74.1331C182.79 75.5987 181.6 76.7882 180.134 76.7882C178.668 76.7882 177.479 75.5987 177.479 74.1331C177.479 72.6675 178.668 71.478 180.134 71.478C181.6 71.4724 182.79 72.6618 182.79 74.1331Z" stroke="white" stroke-width="3" stroke-miterlimit="10"/>
<path d="M284.382 536.049C284.382 537.514 283.192 538.704 281.726 538.704C280.26 538.704 279.071 537.514 279.071 536.049C279.071 534.583 280.26 533.394 281.726 533.394C283.192 533.388 284.382 534.577 284.382 536.049Z" stroke="white" stroke-width="3" stroke-miterlimit="10"/>
<path d="M278.3 269.819C278.3 271.284 277.11 272.474 275.644 272.474C274.178 272.474 272.989 271.284 272.989 269.819C272.989 268.353 274.178 267.164 275.644 267.164C277.11 267.164 278.3 268.353 278.3 269.819Z" stroke="white" stroke-width="3" stroke-miterlimit="10"/>
<path d="M53.7442 211.717C55.0084 211.717 56.0332 210.693 56.0332 209.429C56.0332 208.165 55.0084 207.14 53.7442 207.14C52.4799 207.14 51.4551 208.165 51.4551 209.429C51.4551 210.693 52.4799 211.717 53.7442 211.717Z" stroke="white" stroke-width="3" stroke-miterlimit="10"/>
<path d="M155.336 673.633C156.601 673.633 157.626 672.608 157.626 671.344C157.626 670.08 156.601 669.055 155.336 669.055C154.072 669.055 153.047 670.08 153.047 671.344C153.047 672.608 154.072 673.633 155.336 673.633Z" stroke="white" stroke-width="3" stroke-miterlimit="10"/>
<path d="M45.9864 282.868C45.9864 284.131 44.9602 285.157 43.6973 285.157C42.4343 285.157 41.4082 284.131 41.4082 282.868C41.4082 281.606 42.4343 280.58 43.6973 280.58C44.9602 280.58 45.9864 281.606 45.9864 282.868Z" stroke="white" stroke-width="3" stroke-miterlimit="10"/>
<path d="M147.578 744.784C147.578 746.046 146.552 747.072 145.289 747.072C144.026 747.072 143 746.046 143 744.784C143 743.521 144.026 742.495 145.289 742.495C146.552 742.495 147.578 743.521 147.578 744.784Z" stroke="white" stroke-width="3" stroke-miterlimit="10"/>
<path d="M355.21 150.228C360.581 150.228 364.935 145.874 364.935 140.504C364.935 135.134 360.581 130.78 355.21 130.78C349.838 130.78 345.484 135.134 345.484 140.504C345.484 145.874 349.838 150.228 355.21 150.228Z" fill="white"/>
<path d="M120.595 196.976C125.967 196.976 130.321 192.623 130.321 187.252C130.321 181.882 125.967 177.528 120.595 177.528C115.224 177.528 110.87 181.882 110.87 187.252C110.87 192.623 115.224 196.976 120.595 196.976Z" fill="white"/>
<path d="M222.188 658.892C227.559 658.892 231.913 654.538 231.913 649.168C231.913 643.797 227.559 639.444 222.188 639.444C216.816 639.444 212.462 643.797 212.462 649.168C212.462 654.538 216.816 658.892 222.188 658.892Z" fill="white"/>
</g>
<path d="M74.5651 444.776C69.7129 451.196 64.4173 457.181 57.8533 461.925C57.3441 462.294 56.8159 462.638 56.2595 462.931C54.0621 464.092 52.6474 463.445 52.1287 460.986C51.7279 459.069 52.3456 457.238 52.8549 455.435C54.6232 449.232 57.8345 443.756 61.5739 438.564C62.2859 438.762 62.9933 438.96 63.7053 439.154C63.6864 440.088 63.0593 440.73 62.583 441.438C59.9517 445.352 57.7213 449.487 55.986 453.877C55.472 455.18 55.0665 456.549 54.826 457.927C54.6751 458.781 54.2978 459.985 55.3022 460.486C56.1888 460.929 56.8206 459.905 57.4761 459.409C63.2196 455.081 67.6758 449.482 72.4667 444.214C73.1694 444.398 73.8673 444.587 74.5651 444.776Z" fill="white"/>
<path d="M63.7051 439.158C62.9931 438.96 62.2858 438.762 61.5737 438.568C63.6438 435.41 65.978 432.488 69.0856 430.284C70.6888 429.146 72.4006 428.179 74.4424 428.122C75.9749 428.08 77.0076 428.759 77.234 430.35C77.3141 430.912 77.0831 431.455 76.5785 431.771C76.0362 432.111 75.4657 432.002 75.145 431.474C74.3481 430.171 73.4521 430.803 72.5373 431.252C69.7316 432.635 67.6709 434.877 65.6762 437.199C65.0726 437.898 64.6435 438.786 63.7051 439.158Z" fill="white"/>
<path d="M153.315 348.927C153.668 346.892 151.848 345.254 152.292 342.96C153.966 344.532 154.579 346.972 156.875 347.676C157.12 348.214 157.545 348.714 158.068 348.205C158.469 347.817 157.922 347.43 157.559 347.166C155.635 344.527 153.767 341.855 153.187 337.961C153.966 338.849 154.418 339.368 154.871 339.887C155.064 339.972 155.366 340.175 155.427 340.118C155.706 339.859 155.559 339.58 155.324 339.349C152.881 334.208 153.791 328.61 153.098 322.804C152.905 323.804 152.787 324.418 152.546 325.674C151.084 322.355 150.037 319.632 150 316.577C149.938 311.498 148.283 306.773 146.642 302.057C145.242 298.045 144.068 293.943 143.69 289.732C143.45 287.07 142.144 285.998 139.876 285.46C139.192 285.295 138.494 285.144 137.843 284.875C137.221 284.615 136.334 284.407 136.471 283.506C136.608 282.604 137.409 282.906 138.003 282.982C138.499 283.043 139.013 283.133 139.017 282.434C139.017 281.717 138.522 281.292 137.895 281.07C136.282 280.499 134.717 279.866 133.146 278.12C135.184 278.318 135.881 277.685 136.004 276.019C136.08 275.014 137.027 274.48 137.956 275.722C140.257 278.814 142.785 281.688 145.746 284.195C147.222 285.446 147.477 287.499 148.165 289.246C148.529 290.166 148.651 291.313 150.014 291.37L149.976 291.332C149.222 292.154 149.099 292.829 149.726 293.976C151.528 297.29 152.777 300.83 153.56 304.559C155.069 311.763 157.224 318.754 160.893 325.202C161.411 326.113 162.081 326.405 163.019 326.231C165.58 325.749 167.82 321.123 166.372 318.957C165.217 317.229 165.542 316.124 167.075 315.02C168.037 314.326 168.914 313.542 168.904 312.187C168.9 311.508 169.343 311.149 169.97 311.215C172.017 311.423 173.37 310.431 174.888 309.128C176.888 307.415 181.815 308.704 183.475 310.965C187.554 316.525 187.215 320.505 182.249 325.523C181.881 325.891 181.646 326.391 181.136 327.151C183.046 327.151 184.73 327.458 186.253 327.095C191.063 325.952 196.179 326.014 200.644 323.422C202.13 322.558 203.851 322.1 205.6 322.067C208.609 322.006 211.415 321.303 214.211 320.127C219.841 317.758 225.245 319.419 230.546 321.567C230.838 321.685 231.121 321.817 231.404 321.959C232.196 322.346 233.757 322.209 233.62 323.177C233.436 324.475 231.96 322.988 231.196 323.738C231.192 323.795 231.126 323.965 231.177 324.083C231.493 324.8 233.125 324.876 232.432 325.933C231.97 326.632 231.022 325.759 230.324 325.527C229.362 325.211 228.433 324.772 227.514 324.343C227.08 324.14 226.646 323.842 226.231 324.239C225.807 324.645 226.122 325.103 226.306 325.527C226.49 325.962 226.688 326.391 226.816 326.84C226.948 327.302 226.995 327.85 226.533 328.119C225.863 328.511 225.533 327.907 225.241 327.468C224.939 327.014 224.755 326.481 224.477 326.009C223.015 323.535 219.997 322.52 217.441 323.748C210.41 327.137 203.054 329.62 195.49 331.409C193.383 331.905 191.525 332.703 189.662 333.647C186.512 335.252 183.027 335.464 179.646 336.087C178.09 336.37 176.911 336.946 176.095 338.391C175.445 339.547 174.487 340.557 173.327 341.242C172.191 341.912 172.059 343.22 172.045 344.069C172.031 344.98 172.644 346.368 174.313 346.156C175.2 346.043 175.676 346.897 176.124 347.501C176.968 348.634 177.755 349.814 178.444 351.046C180.137 354.077 182.546 355.422 185.993 354.412C187.507 353.968 188.441 354.266 189.134 355.866C189.893 357.622 192.859 357.697 194.179 356.092C198.636 350.697 204.011 346.647 210.759 344.565C211.118 344.452 211.462 344.173 212.061 344.574C205.506 347.558 201.46 352.911 198.225 358.929C196.49 362.163 195.193 365.637 193.703 369.003C193.321 369.857 192.939 370.716 192.557 371.571C189.525 369.985 186.531 368.413 183.654 366.468C175.016 360.624 166.066 355.238 157.233 349.687C156.309 349.106 155.357 348.474 154.168 349.002C153.885 348.965 153.598 348.927 153.31 348.889L153.315 348.927Z" fill="white"/>
<path d="M154.14 348.998C155.328 348.469 156.281 349.101 157.21 349.682C166.046 355.233 174.992 360.619 183.631 366.463C186.507 368.408 189.501 369.98 192.534 371.566C188.563 383.811 185.545 396.367 180.542 408.273C179.566 410.595 178.335 412.785 176.817 414.815C174.36 418.101 171.389 419.672 167.008 419.658C160.147 419.635 153.541 418.827 147.18 416.311C139.597 413.319 133.495 408.414 128.671 401.843C127.563 400.333 127.653 399.62 129.492 399.03C131.812 398.284 134.099 397.34 135.971 395.744C137.254 394.654 137.9 394.994 138.668 396.278C141.016 400.186 143.379 404.085 146.439 407.508C150.565 412.12 155.04 416.26 160.982 418.44C167.659 420.895 171.818 419.229 174.78 412.757C177.581 406.63 178.665 399.998 180.08 393.479C181.631 386.337 183.22 379.213 185.663 372.312C186.309 370.49 186.012 369.886 183.947 370.344C181.561 370.877 179.085 370.849 176.694 370.334C175.468 370.07 174.695 370.273 173.803 371.17C172.28 372.709 170.786 374.422 168.216 374.181C167.687 374.134 167.098 374.691 166.551 374.998C158.945 379.251 151.504 383.858 143.124 386.497C141.559 386.993 141.309 388.324 140.446 389.277C136.018 394.191 131.218 398.44 123.696 397.382C124.215 398.27 125.13 397.637 125.521 398.77C122.334 400.064 119.146 401.466 115.878 402.636C113.931 403.335 112.657 404.142 112.601 406.54C112.549 408.782 111.526 409.259 109.305 408.66C106.772 407.98 104.745 409.325 102.693 410.397C101.241 411.157 99.9443 412.224 98.3552 412.743C97.5111 413.017 96.5255 413.328 96.0068 412.412C95.474 411.468 95.1486 410.184 96.0917 409.353C100.213 405.714 103.41 400.748 109.474 399.828C111.625 399.502 112.572 397.42 114.379 396.443C120.146 393.318 125.163 388.871 131.463 386.634C131.897 386.478 132.165 385.827 132.477 385.378C134.731 382.098 137.428 379.336 141.031 377.471C143.308 376.291 145.666 375.206 147.68 373.591C147.321 372.421 146.336 373.596 145.845 372.921C145.954 372.737 146.029 372.506 146.185 372.364C147.915 370.764 149.717 369.234 151.381 367.573C152.522 366.44 154.409 365.345 152.287 363.4C151.956 363.098 152.004 362.479 152.258 362.05C154.343 358.519 152.503 355.134 151.867 351.717C151.612 350.357 151.277 349.021 151.287 347.402C152.126 348.025 152.73 348.469 153.329 348.913L153.296 348.875C153.272 349.427 153.607 349.762 154.003 350.069C154.168 350.088 154.338 350.107 154.503 350.126C154.432 350.022 154.361 349.918 154.291 349.814C154.234 349.545 154.187 349.271 154.14 348.998Z" fill="white"/>
<path d="M115.119 467.637C116.345 465.584 118.17 464.045 119.848 462.421C121.518 460.797 122.338 458.97 122.696 456.728C123.045 454.566 123.696 452.451 124.757 450.502C125.163 449.761 125.785 449.175 126.667 449.61C127.671 450.105 127.596 451.12 127.115 451.847C124.366 455.973 124.602 460.835 123.668 465.404C123.531 466.065 123.343 467.042 124.097 467.316C125.05 467.661 125.064 466.528 125.361 465.994C126.356 464.215 127.181 462.336 128.53 460.769C130.354 458.645 132.311 459.022 133.217 461.718C133.589 462.832 133.764 464.007 134.117 465.13C134.764 467.184 135.282 467.311 136.777 465.815C137.333 465.263 137.819 464.64 138.357 464.068C140.686 461.604 142.398 461.689 144.544 464.361C147.033 467.467 148.542 468.114 151.263 467.085C152.206 466.726 153.093 466.183 153.946 465.631C156.464 464.007 158.619 461.93 160.859 459.962C162.184 458.796 161.887 457.082 162.378 455.638C162.788 454.42 162.557 452.159 164.429 452.546C166.221 452.919 165.084 454.83 164.886 456.001C164.297 459.475 163.509 462.917 163.599 466.466C163.613 466.995 163.401 467.675 164.019 467.939C164.698 468.232 164.943 467.514 165.264 467.127C166.508 465.612 167.659 464.021 168.946 462.548C171.026 460.169 172.398 460.113 174.713 462.171C175.067 462.482 175.411 462.808 175.751 463.129C179.948 467.071 182.192 467.231 186.898 463.804C190.138 461.449 193.175 458.914 195.419 455.477C197.06 452.966 199.409 451.049 201.941 449.44C202.851 448.859 203.907 448.434 204.954 448.17C205.935 447.924 207.213 447.858 207.411 449.222C207.599 450.535 206.345 450.214 205.562 450.393C202.573 451.087 200.47 453.235 198.531 455.312C196.579 457.398 194.773 459.744 193.651 462.473C193.453 462.723 193.321 463.016 193.585 463.256C193.656 463.323 193.957 463.134 194.151 463.058C197.136 461.42 199.725 459.249 202.148 456.893C205.36 453.773 208.486 450.563 211.678 447.419C212.438 446.673 213.244 445.559 214.465 446.475C215.55 447.292 214.828 448.368 214.432 449.265C211.985 454.793 209.028 460.098 207.189 465.89C206.524 467.986 205.864 470.087 205.558 472.273C205.468 472.905 205.341 473.641 205.859 474.057C206.534 474.6 207.222 474.019 207.788 473.67C209.415 472.669 210.594 471.177 211.839 469.761C216.186 464.8 219.827 459.324 223.477 453.849C223.991 453.079 224.722 452.432 225.419 451.805C226.061 451.233 226.825 451.021 227.504 451.762C228.178 452.503 227.607 453.056 227.117 453.575C225.556 455.222 224.038 456.893 222.873 458.866C221.949 460.429 221.887 461.713 223.524 462.931C226.622 465.239 227.758 468.666 228.569 472.254C228.711 472.872 228.517 473.84 229.465 473.967C230.173 474.062 230.484 473.335 230.885 472.867C234.256 468.926 237.623 464.984 240.999 461.052C241.462 460.514 241.933 459.995 242.117 459.282C243.801 452.692 245.724 446.159 246.587 439.38C246.837 437.431 245.564 437.402 244.225 437.445C239.278 437.596 234.369 438.172 229.47 438.828C226.051 439.286 222.666 440.022 219.195 440.008C217.978 440.003 216.781 439.833 216.116 438.668C215.385 437.384 215.955 436.218 216.719 435.165C218.704 432.427 221.444 430.586 224.325 428.962C229.649 425.969 235.364 424.086 241.381 423.114C246.531 422.283 249.304 424.591 249.535 429.854C249.756 434.91 249.747 434.688 254.783 434.499C261.686 434.235 268.604 434.339 275.517 434.306C276.399 434.301 277.427 434.405 277.356 435.594C277.285 436.775 276.224 436.732 275.361 436.718C267.581 436.595 259.814 436.93 252.039 437.096C249.917 437.138 249.096 437.686 248.757 439.857C247.172 450.086 244.324 460.028 241.693 470.021C240.537 474.406 239.971 478.952 239.142 483.422C239.085 483.729 239.137 484.074 239.019 484.352C238.689 485.155 238.802 486.609 237.529 486.34C236.341 486.085 236.723 484.758 236.878 483.899C237.831 478.655 238.849 473.42 239.863 468.185C239.953 467.722 240.122 467.278 239.59 466.608C237.227 468.676 235.402 471.206 233.374 473.528C230.861 476.403 229.008 479.396 229.003 483.583C228.998 487.076 227.612 490.494 225.518 493.463C224.967 494.246 224.358 494.969 223.486 495.384C221.567 496.295 220.237 495.441 220.213 493.312C220.195 491.702 220.614 490.187 221.312 488.766C222.486 486.368 223.637 483.951 224.967 481.638C227.749 476.799 226.263 468.543 221.949 464.937C220.661 463.861 219.836 463.823 218.723 465.239C216.351 468.27 213.81 471.163 211.311 474.095C210.542 475.001 209.608 475.737 208.514 476.219C207.133 476.828 205.6 477.489 204.28 476.441C202.889 475.336 202.648 473.646 203.025 471.928C203.973 467.618 205.393 463.459 207.118 459.4C207.642 458.173 208.128 456.931 208.627 455.694C208.858 455.439 208.986 455.142 208.717 454.882C208.651 454.821 208.34 455.01 208.142 455.085C204.157 458.347 200.639 462.175 196.249 464.951C195.122 465.664 194.042 466.466 192.75 466.853C191.901 467.108 190.77 467.292 190.473 466.315C189.841 464.229 188.954 465.267 188.016 465.914C182.239 469.903 179.269 469.7 174.077 464.984C171.747 462.865 171.677 462.874 169.602 465.409C168.31 466.986 167.055 468.6 165.721 470.139C164.938 471.041 163.967 471.852 162.665 471.413C161.335 470.965 161.185 469.667 161.024 468.51C160.897 467.585 160.977 466.632 160.935 465.687C160.911 465.164 161.17 464.484 160.59 464.186C159.973 463.87 159.633 464.545 159.228 464.861C156.7 466.835 154.276 468.935 151.037 469.79C147.67 470.677 145.27 469.436 143.275 466.83C141.516 464.531 141.224 464.573 139.272 466.783C138.003 468.213 136.956 470.356 134.664 469.86C132.269 469.341 132.156 466.934 131.595 464.994C131.382 464.271 131.444 463.157 130.604 463.016C129.572 462.841 129.369 464.045 128.954 464.729C127.893 466.466 126.95 468.279 125.922 470.04C125.304 471.102 124.493 472.018 123.111 471.697C121.791 471.39 121.753 470.12 121.442 469.086C121.088 467.92 121.961 465.938 120.839 465.678C119.547 465.381 118.82 467.33 117.821 468.274C117.538 468.543 117.274 468.836 117 469.119C116.349 468.619 115.736 468.128 115.119 467.637ZM247.186 431.039C247.106 426.635 245.946 425.195 242.659 425.615C235.973 426.475 229.715 428.603 224 432.224C222.416 433.225 220.85 434.292 219.591 435.717C219.242 436.109 218.747 436.548 219.124 437.148C219.412 437.61 219.954 437.492 220.412 437.44C221.968 437.27 223.528 437.133 225.07 436.893C231.182 435.953 237.317 435.226 243.48 434.797C247.243 434.537 247.252 434.679 247.186 431.039ZM222.802 492.519C224.891 490.38 225.292 488.218 225.58 486.014C224.075 487.732 223.208 489.71 222.802 492.519Z" fill="white"/>
<path d="M115.119 467.637C115.732 468.128 116.35 468.619 116.963 469.11C114.624 471.862 112.355 474.68 109.922 477.347C107.725 479.75 106.513 482.436 106.103 485.707C105.452 490.871 103.957 495.846 101.533 500.491C100.765 501.969 99.8264 503.338 98.4683 504.329C96.7094 505.613 95.2806 505.023 94.8939 502.889C94.71 501.86 94.9316 500.869 95.2287 499.873C96.8886 494.35 99.119 489.073 102.236 484.215C103.754 481.85 104.778 479.424 104.971 476.568C105.339 471.158 105.829 465.758 105.773 460.33C105.768 459.886 105.876 459.362 105.202 459.008C104.075 459.659 103.438 460.858 102.594 461.845C100.845 463.879 99.0436 465.853 96.667 467.174C93.616 468.874 91.7015 468.213 90.7584 464.89C90.202 462.926 89.589 462.827 88.146 464.054C84.9772 466.754 81.8225 469.478 78.5216 472.008C73.7731 475.652 71.123 480.486 69.4065 486.132C67.9966 490.772 66.3509 495.398 63.4225 499.401C62.5832 500.548 61.7391 501.681 60.5461 502.488C59.5605 503.154 58.5278 503.338 57.4621 502.672C56.3964 502.007 56.0145 500.935 56.2455 499.816C56.5143 498.523 56.9764 497.248 57.5329 496.045C60.1453 490.371 63.6253 485.235 67.5439 480.392C69.1 478.47 70.1516 476.375 70.9014 474C73.5468 465.612 76.0743 457.186 79.1488 448.939C79.9457 448.949 80.7426 448.958 81.5349 448.968C79.0828 456.681 76.626 464.394 74.1739 472.107C74.3531 472.211 74.5323 472.32 74.7115 472.424C79.3327 467.835 84.7508 464.224 89.5842 459.914C91.1356 458.531 91.6261 458.914 92.1353 460.509C92.3994 461.33 92.5597 462.18 92.8002 463.011C93.5736 465.711 94.1866 465.947 96.5113 464.267C99.2181 462.308 101.199 459.655 103.198 457.035C103.816 456.223 104.363 455.359 104.995 454.557C105.485 453.929 106.07 453.381 106.989 453.617C107.937 453.863 108.163 454.656 108.192 455.444C108.258 457.483 108.234 459.522 108.234 461.562C108.239 466.098 108.234 470.63 108.234 475.199C110.389 472.829 112.756 470.233 115.119 467.637ZM102.844 488.124C100.708 492.481 98.2325 496.715 97.6053 501.648C100.996 497.805 101.972 493.019 102.934 488.223C102.976 488.185 103.023 488.147 103.066 488.11C103.033 488.077 103.005 488.039 102.972 488.006C102.929 488.044 102.887 488.081 102.844 488.124ZM66.6574 485.839C63.3424 489.545 60.9186 493.774 58.9711 498.296C58.7259 498.863 58.2685 499.613 58.8815 500.01C59.6548 500.506 60.15 499.646 60.5508 499.137C63.6395 495.214 65.3606 490.635 66.6574 485.839Z" fill="white"/>
<path d="M129.704 316.941C128.605 321.024 127.309 325.069 126.446 329.205C123.447 343.583 124.654 357.796 128.502 371.854C129.412 375.182 130.529 378.458 131.689 381.71C132.208 383.169 131.902 384.203 130.661 384.92C128.219 386.336 125.729 387.663 123.253 389.018C121.966 389.726 121.796 388.626 121.518 387.861C120.061 383.863 119.071 379.728 118.542 375.517C115.954 354.875 119.797 335.36 129.049 316.832C129.266 316.875 129.487 316.908 129.704 316.941Z" fill="white"/>
<path d="M311.002 302.935C309.167 309.435 306.055 315.256 301.731 320.406C292.79 331.065 280.884 336.474 267.666 339.472C255.264 342.285 242.641 342.644 229.998 342.771C226.509 342.804 223.019 342.757 219.492 342.729C223.812 342.12 228.131 341.535 232.446 340.907C247.054 338.773 261.536 335.997 275.409 330.829C286.061 326.863 296.044 321.643 303.9 313.08C306.725 310.011 308.88 306.495 311.002 302.935Z" fill="white"/>
<path d="M224.816 352.689C226.306 352.783 227.791 352.906 229.282 352.967C231.012 353.038 232.601 353.123 233.478 350.952C234.115 349.385 236.044 349.323 237.435 349.621C240.311 350.23 242.839 349.337 245.427 348.431C246.234 348.148 247.097 348.044 247.922 347.808C249.238 347.43 250.233 347.643 250.732 349.087C251.185 350.404 251.232 351.575 249.841 352.354C245.328 354.889 240.896 357.721 235.473 357.697C230.111 357.674 225.264 359.906 220.138 360.921C215.437 361.851 210.971 363.513 206.751 365.826C206.223 366.114 205.501 366.416 204.978 366.284C203.176 365.831 201.606 366.279 200.041 367.105C199.494 367.393 198.749 367.582 198.282 367.044C197.89 366.595 198.258 365.991 198.475 365.491C199.097 364.051 199.81 362.64 200.352 361.172C201.21 358.849 202.578 357.457 205.265 357.877C205.893 357.976 206.77 358.183 206.656 356.852C206.628 356.522 207.708 356.036 208.326 355.715C213.518 353.033 219.087 352.434 224.816 352.689ZM209.509 357.834C209.646 357.801 209.887 357.787 209.896 357.726C209.967 357.395 209.679 357.457 209.509 357.466C209.387 357.471 209.269 357.575 209.146 357.636C209.269 357.702 209.387 357.768 209.509 357.834Z" fill="white"/>
<path d="M151.9 289.945C153.31 287.825 155.625 286.895 157.691 285.701C167.687 279.914 178.458 277.789 189.841 279.748C201.517 281.759 212.051 286.659 221.822 293.277C228.461 297.776 234.742 302.728 240.655 308.142C240.929 308.392 241.174 308.68 241.764 309.299C240.269 309.138 239.519 308.449 238.708 307.967C226.815 300.953 215.074 293.645 202.323 288.231C193.75 284.592 184.923 281.972 175.449 282.279C168.013 282.519 161.076 284.341 154.753 288.349C153.833 288.934 152.834 289.392 151.872 289.912C151.872 289.916 151.9 289.945 151.9 289.945Z" fill="white"/>
<path d="M266.746 475.464C264.304 475.525 263.2 474.081 262.733 472.089C262.347 470.451 261.743 470.786 260.937 471.711C259.192 473.712 257.48 475.742 255.721 477.725C254.882 478.669 253.863 479.41 252.76 480.028C249.572 481.808 247.115 480.722 246.752 477.069C246.125 470.79 248.04 464.965 250.52 459.306C250.822 458.616 251.473 458.059 252.18 458.291C253.052 458.574 252.807 459.485 252.604 460.132C252.015 462.001 251.392 463.865 250.69 465.697C249.412 469.034 248.978 472.499 248.997 476.04C249.002 476.918 249.006 477.885 249.921 478.301C250.831 478.716 251.605 478.055 252.237 477.517C255.603 474.647 258.14 471.036 260.984 467.694C264.346 463.747 266.76 459.074 270.533 455.454C271.334 454.689 272.108 453.891 273.249 453.683C273.867 453.57 274.565 453.499 274.866 454.24C275.112 454.845 274.763 455.27 274.249 455.6C270.226 458.154 268.076 462.157 266.039 466.249C265.831 466.669 265.605 467.09 265.464 467.538C264.94 469.218 264.393 471.126 265.822 472.414C267.34 473.778 268.75 472.164 269.986 471.395C274.602 468.515 278.582 464.819 282.642 461.231C283.114 460.816 283.576 460.386 284.095 460.037C284.66 459.655 285.344 459.645 285.854 460.08C286.514 460.646 286.033 461.312 285.641 461.727C284.623 462.808 283.496 463.79 282.411 464.81C278.686 468.317 274.72 471.517 270.358 474.208C269.212 474.911 268.029 475.53 266.746 475.464Z" fill="white"/>
<path d="M74.5652 444.776C73.8673 444.587 73.1647 444.398 72.4668 444.214C75.994 439.9 79.5118 435.58 83.0531 431.275C83.7935 430.374 84.7602 429.656 85.9107 430.298C87.1038 430.959 86.769 432.177 86.5143 433.263C85.2459 438.62 83.3125 443.766 81.5442 448.968C80.7473 448.958 79.9503 448.949 79.1581 448.939C80.2568 444.511 82.2232 440.324 82.8504 435.698C79.5684 438.304 77.4605 441.901 74.5652 444.776Z" fill="white"/>
<path d="M150.447 484.112C150.447 485.495 150.462 486.873 150.443 488.256C150.433 488.799 150.466 489.432 149.665 489.446C148.92 489.46 148.759 488.898 148.755 488.322C148.736 485.967 148.731 483.611 148.769 481.256C148.773 480.902 148.924 480.401 149.184 480.231C149.683 479.906 150.023 480.43 150.339 480.741C151.622 482.011 152.881 483.309 154.163 484.574C154.484 484.89 154.8 485.372 155.337 485.174C155.88 484.975 155.804 484.414 155.833 483.96C155.899 482.941 155.889 481.921 155.979 480.906C156.021 480.415 156.295 479.976 156.889 480.061C157.356 480.127 157.488 480.538 157.488 480.944C157.502 483.536 157.587 486.132 157.469 488.719C157.403 490.13 156.568 489.413 156.078 488.945C154.385 487.326 152.739 485.66 151.075 484.008C150.862 484.045 150.655 484.078 150.447 484.112Z" fill="white"/>
<path d="M202.191 487.251C201.701 487.463 201.715 487.878 201.668 488.251C201.578 488.903 201.479 489.592 200.588 489.422C199.838 489.28 200.008 488.582 199.998 488.072C199.97 486.113 199.942 484.154 199.994 482.2C200.017 481.331 199.616 480.137 200.927 479.858C202.441 479.533 203.922 479.802 205.067 480.939C205.935 481.803 206.246 483.172 205.445 483.927C203.79 485.49 203.794 486.816 205.223 488.398C205.473 488.671 205.68 489.115 205.28 489.427C204.851 489.757 204.398 489.616 204.011 489.266C203.332 488.657 203.111 487.614 202.191 487.251Z" fill="white"/>
<path d="M120.174 488.19C120.344 488.176 120.664 488.1 120.966 488.143C121.57 488.232 122.499 487.284 122.734 488.421C122.965 489.549 121.909 489.785 121.056 489.951C118.717 490.409 116.279 489.389 115.128 487.458C113.964 485.499 114.086 483.545 115.373 481.699C116.647 479.872 119.25 479.065 121.513 479.731C122.112 479.906 122.899 480.104 122.819 480.854C122.701 481.954 121.787 481.487 121.141 481.459C120.749 481.44 120.362 481.331 119.971 481.331C117.906 481.326 116.175 482.837 116.109 484.678C116.043 486.632 117.76 488.171 120.174 488.19Z" fill="white"/>
<path d="M133.014 484.805C133.014 484.258 133.014 483.706 133.014 483.158C133.024 479.882 134.32 478.914 137.513 479.773C137.994 479.901 138.451 480.047 138.479 480.618C138.522 481.402 137.909 481.44 137.357 481.496C136.966 481.534 136.574 481.525 136.183 481.558C135.622 481.605 135.051 481.676 135.018 482.426C134.981 483.167 135.495 483.337 136.084 483.394C136.475 483.432 136.867 483.432 137.258 483.474C137.8 483.531 138.451 483.536 138.484 484.277C138.527 485.174 137.786 485.169 137.164 485.24C137.008 485.259 136.853 485.268 136.692 485.268C135.645 485.268 134.825 485.485 134.877 486.821C134.924 488.077 135.787 488.062 136.678 488.138C137.329 488.195 138.38 487.897 138.428 488.827C138.489 489.918 137.385 489.762 136.645 489.818C133.118 490.083 133.014 489.932 133.014 484.805Z" fill="white"/>
<path d="M183.909 484.697C183.909 484.149 183.904 483.597 183.909 483.049C183.923 479.887 185.196 478.952 188.304 479.788C188.874 479.943 189.412 480.146 189.332 480.831C189.261 481.416 188.705 481.449 188.233 481.487C187.842 481.52 187.45 481.515 187.059 481.548C186.493 481.596 185.927 481.68 185.889 482.422C185.852 483.153 186.366 483.333 186.955 483.394C187.191 483.422 187.427 483.418 187.658 483.446C188.332 483.526 189.285 483.38 189.219 484.395C189.157 485.358 188.209 485.226 187.54 485.235C185.965 485.263 185.333 485.986 185.908 487.482C186.224 488.308 187.106 488.034 187.776 488.129C188.36 488.214 189.252 487.996 189.28 488.846C189.313 489.828 188.365 489.729 187.691 489.8C184.376 490.154 183.923 489.734 183.914 486.34C183.909 485.797 183.909 485.244 183.909 484.697Z" fill="white"/>
<path d="M170.668 479.679C171.503 479.736 172.233 479.665 172.889 479.858C173.79 480.123 173.992 481.114 173.167 481.317C171.191 481.808 171.719 483.233 171.653 484.456C171.587 485.702 171.63 486.953 171.602 488.199C171.587 488.841 171.526 489.521 170.621 489.455C169.862 489.398 169.871 488.771 169.857 488.232C169.824 486.906 169.857 485.58 169.805 484.253C169.758 483.087 170.182 481.77 168.32 481.341C167.391 481.128 167.636 480.179 168.489 479.896C169.201 479.665 170.022 479.736 170.668 479.679Z" fill="white"/>
<path d="M255.009 449.194C255.806 449.265 256.353 449.704 256.381 450.511C256.41 451.366 256.009 452.078 255.08 452.196C254.217 452.305 253.774 451.786 253.727 450.945C253.675 450.025 254.137 449.468 255.009 449.194Z" fill="white"/>
<path d="M129.704 316.941C129.487 316.908 129.265 316.875 129.048 316.837C129.921 314.836 131.024 312.976 132.462 311.305C131.972 313.396 130.897 315.194 129.704 316.941Z" fill="white"/>
<path d="M133.358 309.431C133.49 309.256 133.622 309.077 133.754 308.902C133.849 308.982 134.037 309.1 134.023 309.128C133.929 309.327 133.797 309.506 133.679 309.69C133.58 309.615 133.486 309.534 133.358 309.431Z" fill="white"/>
<path d="M150.9 290.365C150.853 290.945 150.438 291.163 149.966 291.332L150.004 291.37C150.079 290.823 150.466 290.572 150.938 290.407L150.9 290.365Z" fill="white"/>
<path d="M134.769 307.5C134.787 307.557 134.811 307.609 134.83 307.665C134.754 307.632 134.679 307.599 134.604 307.571C134.66 307.547 134.712 307.524 134.769 307.5Z" fill="white"/>
<path d="M150.933 290.402C151.15 290.03 151.48 289.893 151.895 289.945L151.867 289.916C151.65 290.294 151.325 290.44 150.896 290.365C150.9 290.365 150.933 290.402 150.933 290.402Z" fill="white"/>
<path d="M157.554 347.166C157.917 347.43 158.464 347.813 158.063 348.205C157.54 348.71 157.12 348.214 156.87 347.676C157.101 347.501 157.328 347.331 157.554 347.166Z" fill="white"/>
<path d="M153.994 350.079C153.598 349.776 153.263 349.437 153.286 348.884C153.574 348.922 153.857 348.96 154.145 348.998C154.192 349.271 154.239 349.545 154.286 349.819C154.182 349.904 154.088 349.989 153.994 350.079Z" fill="white"/>
<path d="M155.318 339.344C155.554 339.576 155.7 339.854 155.422 340.114C155.361 340.17 155.059 339.967 154.866 339.882C155.017 339.708 155.168 339.528 155.318 339.344Z" fill="white"/>
<path d="M154.281 349.819C154.352 349.923 154.423 350.027 154.493 350.13C154.328 350.112 154.163 350.093 153.994 350.074C154.088 349.989 154.182 349.904 154.281 349.819Z" fill="white"/>
<path d="M225.575 486.014C225.292 488.223 224.892 490.385 222.798 492.519Z" fill="white"/>
<path d="M208.114 455.085C208.312 455.01 208.628 454.821 208.689 454.882C208.958 455.147 208.831 455.444 208.599 455.694C208.439 455.491 208.279 455.288 208.114 455.085Z" fill="white"/>
<path d="M194.137 463.063C193.943 463.134 193.641 463.323 193.571 463.261C193.307 463.016 193.439 462.728 193.637 462.478C193.806 462.671 193.972 462.865 194.137 463.063Z" fill="white"/>
<path d="M102.844 488.124L102.944 488.228Z" fill="white"/>
<path d="M102.844 488.124C102.887 488.081 102.929 488.044 102.972 488.001C103.005 488.034 103.033 488.072 103.066 488.105C103.023 488.143 102.976 488.181 102.939 488.223C102.943 488.228 102.844 488.124 102.844 488.124Z" fill="white"/>
<path d="M209.505 357.834C209.382 357.768 209.269 357.702 209.151 357.636C209.273 357.575 209.391 357.471 209.514 357.466C209.684 357.461 209.967 357.4 209.901 357.726C209.886 357.787 209.646 357.801 209.505 357.834Z" fill="white"/>
<path d="M18.1354 22C18.0514 22 17.9814 21.972 17.9254 21.916C17.8694 21.8507 17.8414 21.776 17.8414 21.692C17.8414 21.6267 17.86 21.566 17.8974 21.51L19.9554 18.668C19.75 18.7147 19.5587 18.7333 19.3814 18.724C18.756 18.7053 18.1867 18.5513 17.6734 18.262C17.16 17.9727 16.754 17.5807 16.4554 17.086C16.166 16.5913 16.0214 16.05 16.0214 15.462C16.0214 14.874 16.166 14.3233 16.4554 13.81C16.7447 13.2873 17.174 12.8673 17.7434 12.55C18.3127 12.2233 18.9987 12.06 19.8014 12.06C20.604 12.06 21.2947 12.214 21.8734 12.522C22.452 12.8207 22.886 13.2267 23.1754 13.74C23.474 14.244 23.6234 14.7993 23.6234 15.406C23.6234 15.7793 23.5627 16.134 23.4414 16.47C23.32 16.806 23.18 17.1 23.0214 17.352C22.872 17.5947 22.6574 17.912 22.3774 18.304L19.9134 21.72C19.8574 21.804 19.792 21.874 19.7174 21.93C19.652 21.9767 19.5587 22 19.4374 22H18.1354ZM19.8154 17.24C20.3287 17.24 20.758 17.0813 21.1034 16.764C21.458 16.4373 21.6354 16.0033 21.6354 15.462C21.6354 14.9207 21.458 14.4867 21.1034 14.16C20.758 13.8333 20.3287 13.67 19.8154 13.67C19.302 13.67 18.868 13.8333 18.5134 14.16C18.168 14.4867 17.9954 14.9207 17.9954 15.462C17.9954 16.0033 18.168 16.4373 18.5134 16.764C18.8587 17.0813 19.2927 17.24 19.8154 17.24ZM25.118 17.1C25.0247 17.1 24.9453 17.0673 24.88 17.002C24.8147 16.9367 24.782 16.8573 24.782 16.764V15.434C24.782 15.3313 24.8147 15.2473 24.88 15.182C24.9453 15.1167 25.0247 15.084 25.118 15.084H26.504C26.6067 15.084 26.6907 15.1167 26.756 15.182C26.8213 15.2473 26.854 15.3313 26.854 15.434V16.764C26.854 16.8573 26.8213 16.9367 26.756 17.002C26.6907 17.0673 26.6067 17.1 26.504 17.1H25.118ZM25.118 22C25.0247 22 24.9453 21.9673 24.88 21.902C24.8147 21.8367 24.782 21.7573 24.782 21.664V20.334C24.782 20.2313 24.8147 20.1473 24.88 20.082C24.9453 20.0167 25.0247 19.984 25.118 19.984H26.504C26.6067 19.984 26.6907 20.0167 26.756 20.082C26.8213 20.1473 26.854 20.2313 26.854 20.334V21.664C26.854 21.7573 26.8213 21.8367 26.756 21.902C26.6907 21.9673 26.6067 22 26.504 22H25.118ZM32.9718 22C32.8785 22 32.7991 21.9673 32.7338 21.902C32.6685 21.8367 32.6358 21.7573 32.6358 21.664V19.872H28.1978C28.1045 19.872 28.0251 19.8393 27.9598 19.774C27.8945 19.7087 27.8618 19.6293 27.8618 19.536V18.584C27.8618 18.4347 27.9131 18.2947 28.0158 18.164L32.1458 12.438C32.1925 12.3633 32.2625 12.3073 32.3558 12.27C32.4491 12.2233 32.5518 12.2 32.6638 12.2H34.1898C34.2925 12.2 34.3718 12.2327 34.4278 12.298C34.4931 12.354 34.5258 12.4333 34.5258 12.536V18.22H35.7718C35.8745 18.22 35.9585 18.2527 36.0238 18.318C36.0891 18.374 36.1218 18.4533 36.1218 18.556V19.536C36.1218 19.6293 36.0891 19.7087 36.0238 19.774C35.9585 19.8393 35.8791 19.872 35.7858 19.872H34.5258V21.664C34.5258 21.7573 34.4931 21.8367 34.4278 21.902C34.3718 21.9673 34.2925 22 34.1898 22H32.9718ZM32.6778 18.276V14.23L29.8078 18.276H32.6778ZM39.8382 22C39.7448 22 39.6655 21.9673 39.6002 21.902C39.5348 21.8367 39.5022 21.7573 39.5022 21.664V14.412L37.3742 16.05C37.3182 16.0967 37.2528 16.12 37.1782 16.12C37.0662 16.12 36.9728 16.0687 36.8982 15.966L36.3102 15.21C36.2635 15.1353 36.2402 15.0653 36.2402 15C36.2402 14.888 36.2915 14.7947 36.3942 14.72L39.5302 12.298C39.6142 12.2327 39.7308 12.2 39.8802 12.2H41.1122C41.2148 12.2 41.2942 12.2327 41.3502 12.298C41.4155 12.354 41.4482 12.4333 41.4482 12.536V21.664C41.4482 21.7573 41.4155 21.8367 41.3502 21.902C41.2942 21.9673 41.2148 22 41.1122 22H39.8382Z" fill="white"/>
<rect x="320.508" y="13.4558" width="19.7917" height="9.71086" rx="2.16667" fill="white" stroke="#0C0B0A"/>
<path d="M341.745 16.421V20.2013C342.506 19.8812 343 19.1364 343 18.3112C343 17.486 342.506 16.7412 341.745 16.421" fill="white"/>
<rect x="321.898" y="14.8459" width="17.0114" height="6.93056" rx="1.33333" fill="white"/>
<path fill-rule="evenodd" clip-rule="evenodd" d="M308.038 15.1124C310.14 15.1125 312.163 15.9197 313.686 17.3671C313.801 17.4789 313.985 17.4775 314.098 17.364L315.194 16.2579C315.252 16.2004 315.284 16.1224 315.283 16.0412C315.283 15.9601 315.25 15.8825 315.192 15.8256C311.192 11.996 304.883 11.996 300.883 15.8256C300.825 15.8825 300.793 15.96 300.792 16.0412C300.791 16.1223 300.823 16.2003 300.88 16.2579L301.978 17.364C302.091 17.4776 302.274 17.4791 302.389 17.3671C303.913 15.9196 305.935 15.1124 308.038 15.1124ZM308.038 18.7108C309.193 18.7107 310.307 19.1398 311.163 19.9145C311.279 20.0245 311.462 20.0221 311.575 19.9091L312.67 18.8031C312.728 18.7451 312.76 18.6664 312.759 18.5846C312.758 18.5028 312.725 18.4248 312.666 18.3679C310.058 15.9444 306.02 15.9444 303.412 18.3679C303.353 18.4248 303.32 18.5028 303.319 18.5847C303.318 18.6665 303.35 18.7452 303.408 18.8031L304.504 19.9091C304.616 20.0221 304.799 20.0245 304.915 19.9145C305.77 19.1403 306.884 18.7113 308.038 18.7108ZM310.233 21.132C310.234 21.214 310.202 21.293 310.143 21.3505L308.248 23.2614C308.193 23.3176 308.117 23.3492 308.038 23.3492C307.959 23.3492 307.883 23.3176 307.828 23.2614L305.932 21.3505C305.874 21.293 305.841 21.2139 305.843 21.1319C305.845 21.0499 305.88 20.9722 305.941 20.9172C307.152 19.8944 308.924 19.8944 310.135 20.9172C310.195 20.9723 310.231 21.0499 310.233 21.132Z" fill="white"/>
<path fill-rule="evenodd" clip-rule="evenodd" d="M295.121 13.2708H294.176C293.654 13.2708 293.231 13.6939 293.231 14.2158V22.4065C293.231 22.9284 293.654 23.3516 294.176 23.3516H295.121C295.643 23.3516 296.066 22.9284 296.066 22.4065V14.2158C296.066 13.6939 295.643 13.2708 295.121 13.2708ZM289.766 15.4759H290.711C291.233 15.4759 291.656 15.8991 291.656 16.421V22.4065C291.656 22.9284 291.233 23.3516 290.711 23.3516H289.766C289.244 23.3516 288.821 22.9284 288.821 22.4065V16.421C288.821 15.8991 289.244 15.4759 289.766 15.4759ZM286.3 17.6811H285.355C284.833 17.6811 284.41 18.1042 284.41 18.6262V22.4065C284.41 22.9284 284.833 23.3516 285.355 23.3516H286.3C286.822 23.3516 287.246 22.9284 287.246 22.4065V18.6262C287.246 18.1042 286.822 17.6811 286.3 17.6811ZM281.89 19.5713H280.945C280.423 19.5713 280 19.9944 280 20.5163V22.4065C280 22.9284 280.423 23.3516 280.945 23.3516H281.89C282.412 23.3516 282.835 22.9284 282.835 22.4065V20.5163C282.835 19.9944 282.412 19.5713 281.89 19.5713Z" fill="white"/>
</g>
<defs>
<linearGradient id="paint0_linear_181_4706" x1="26.0526" y1="-1.44159e-05" x2="562.259" y2="348.305" gradientUnits="userSpaceOnUse">
<stop stop-color="#4F14A0"/>
<stop offset="1" stop-color="#8066FF"/>
</linearGradient>
<linearGradient id="paint1_linear_181_4706" x1="145.582" y1="112.274" x2="70.8301" y2="474.713" gradientUnits="userSpaceOnUse">
<stop stop-color="#6F3F98"/>
<stop offset="1" stop-color="#311846"/>
</linearGradient>
<linearGradient id="paint2_linear_181_4706" x1="307.527" y1="145.675" x2="232.775" y2="508.116" gradientUnits="userSpaceOnUse">
<stop stop-color="#6F3F98"/>
<stop offset="1" stop-color="#311846"/>
</linearGradient>
<linearGradient id="paint3_linear_181_4706" x1="414.976" y1="1.61973" x2="333.367" y2="175.273" gradientUnits="userSpaceOnUse">
<stop offset="0.00569661" stop-color="#DF2E9F"/>
<stop offset="1" stop-color="#311846"/>
</linearGradient>
<clipPath id="clip0_181_4706">
<rect width="360" height="780" fill="white"/>
</clipPath>
</defs>
</svg>
